<svg width="45" height="45" viewBox="0 0 45 45" fill="none" xmlns="http://www.w3.org/2000/svg">
  <path d="M29.7201 0H6.39886C5.74958 0 5.22324 0.526339 5.22324 1.54768V44.1964C5.22324 44.4737 5.74958 45 6.39886 45H38.6012C39.2505 45 39.7768 44.4737 39.7768 44.1964V10.4287C39.7768 9.86946 39.7021 9.68946 39.5703 9.55687L30.2199 0.206518C30.0873 0.0747321 29.9073 0 29.7201 0Z" fill="#E9E9E0"/>
  <path d="M30.134 0.121338V9.64286H39.6555L30.134 0.121338Z" fill="#D9D7CA"/>
  <path d="M15.6809 26.7782C15.4013 26.7782 15.1329 26.6874 14.9039 26.5162C14.0674 25.8886 13.9549 25.1903 14.0079 24.7146C14.1541 23.4064 15.7717 22.0371 18.8173 20.6421C20.0258 17.9935 21.1757 14.7302 21.8612 12.0037C21.0592 10.2583 20.2798 7.99388 20.8479 6.66558C21.0472 6.20031 21.2955 5.84353 21.7591 5.68924C21.9424 5.62817 22.4052 5.55103 22.5756 5.55103C22.9806 5.55103 23.3366 6.07254 23.5889 6.39397C23.8259 6.69611 24.3635 7.33656 23.2891 11.8599C24.3724 14.097 25.9072 16.3759 27.3777 17.9365C28.4312 17.746 29.3376 17.6488 30.0761 17.6488C31.3345 17.6488 32.0971 17.9421 32.4081 18.5464C32.6652 19.0462 32.5599 19.6304 32.0947 20.2821C31.6471 20.9081 31.0299 21.2391 30.3108 21.2391C29.3336 21.2391 28.1957 20.622 26.9269 19.403C24.6472 19.8795 21.9849 20.7297 19.833 21.6707C19.1612 23.0962 18.5175 24.2445 17.9181 25.0867C17.0944 26.2398 16.3841 26.7782 15.6809 26.7782ZM17.82 22.6591C16.1028 23.6242 15.4029 24.4173 15.3523 24.8641C15.3442 24.938 15.3225 25.1325 15.6986 25.4201C15.8183 25.3824 16.5174 25.0633 17.82 22.6591ZM28.7783 19.0896C29.4333 19.5934 29.5932 19.8482 30.0215 19.8482C30.2095 19.8482 30.7455 19.8401 30.9938 19.4938C31.1135 19.3258 31.1601 19.2182 31.1786 19.1603C31.0798 19.1081 30.9488 19.002 30.2344 19.002C29.8286 19.0028 29.3183 19.0205 28.7783 19.0896ZM22.7757 13.8005C22.2011 15.7885 21.4425 17.9349 20.6269 19.8787C22.3064 19.227 24.1321 18.6581 25.8469 18.2555C24.7621 16.9955 23.6781 15.4221 22.7757 13.8005ZM22.2879 7.00067C22.2091 7.02719 21.2191 8.41254 22.365 9.58495C23.1276 7.8854 22.3224 6.98942 22.2879 7.00067Z" fill="#CC4B4C"/>
  <path d="M38.6012 45.0001H6.39886C5.74958 45.0001 5.22324 44.4737 5.22324 43.8244V31.3394H39.7768V43.8244C39.7768 44.4737 39.2505 45.0001 38.6012 45.0001Z" fill="#CC4B4C"/>
  <path d="M13.9701 42.5892H12.6514V34.4924H14.9802C15.3241 34.4924 15.6648 34.5471 16.0015 34.6572C16.3382 34.7673 16.6404 34.932 16.908 35.1514C17.1756 35.3707 17.3917 35.6367 17.5564 35.9477C17.7212 36.2587 17.8039 36.6082 17.8039 36.9972C17.8039 37.4078 17.734 37.779 17.595 38.1125C17.456 38.446 17.2615 38.7265 17.0124 38.9531C16.7633 39.1797 16.4628 39.3556 16.1116 39.4802C15.7605 39.6048 15.3715 39.6666 14.9472 39.6666H13.9693V42.5892H13.9701ZM13.9701 35.4921V38.6999H15.1787C15.3394 38.6999 15.4985 38.6726 15.6568 38.6172C15.8143 38.5625 15.9589 38.4725 16.0907 38.348C16.2225 38.2234 16.3286 38.0498 16.4089 37.8265C16.4893 37.6031 16.5295 37.3266 16.5295 36.9972C16.5295 36.8654 16.511 36.7127 16.4748 36.5415C16.4379 36.3696 16.3631 36.2048 16.2498 36.0473C16.1357 35.8898 15.9766 35.7581 15.7717 35.652C15.5668 35.5459 15.2952 35.4929 14.9585 35.4929H13.9701V35.4921Z" fill="white"/>
  <path d="M25.8903 38.3158C25.8903 38.982 25.8188 39.5517 25.6757 40.0242C25.5327 40.4967 25.3519 40.8921 25.1317 41.2111C24.9115 41.5301 24.6648 41.7808 24.39 41.964C24.1152 42.1473 23.85 42.2839 23.5937 42.3763C23.3373 42.4679 23.1027 42.5265 22.8905 42.5523C22.6784 42.5764 22.5209 42.5892 22.418 42.5892H19.3532V34.4924H21.7921C22.4735 34.4924 23.0722 34.6009 23.588 34.8163C24.1039 35.0316 24.533 35.3201 24.8738 35.6785C25.2145 36.0369 25.4684 36.4459 25.6372 36.9031C25.8059 37.3612 25.8903 37.8321 25.8903 38.3158ZM21.9793 41.6225C22.8729 41.6225 23.5173 41.3373 23.9127 40.7659C24.308 40.1946 24.5057 39.3669 24.5057 38.2829C24.5057 37.9462 24.4655 37.6127 24.3852 37.2832C24.304 36.9538 24.1489 36.6556 23.9183 36.3881C23.6877 36.1205 23.3743 35.9043 22.9789 35.7396C22.5836 35.5748 22.0709 35.4921 21.4409 35.4921H20.6719V41.6225H21.9793Z" fill="white"/>
  <path d="M29.1423 35.4921V38.041H32.5262V38.9418H29.1423V42.5892H27.802V34.4924H32.8661V35.4921H29.1423Z" fill="white"/>
</svg>
