<svg width="20" height="20" viewBox="0 0 20 20" fill="none" xmlns="http://www.w3.org/2000/svg">
  <g clip-path="url(#clip0)">
    <path d="M3.51761 15.4668C3.23761 15.4668 2.96844 15.5367 2.72964 15.6679C1.47171 14.0553 0.78125 12.0522 0.78125 10C0.78125 4.91669 4.91669 0.78125 10 0.78125C10.618 0.78125 11.2357 0.842743 11.8359 0.96405C12.0471 1.00677 12.2534 0.870056 12.2961 0.658569C12.3389 0.447082 12.2021 0.241089 11.9907 0.198212C11.3396 0.0666809 10.6699 0 10 0C7.32895 0 4.81766 1.04019 2.92892 2.92892C1.04019 4.81766 0 7.32895 0 10C0 12.2469 0.762939 14.4395 2.15195 16.1974C1.97311 16.4645 1.87698 16.7786 1.87698 17.1074C1.87698 17.5456 2.04773 17.9576 2.35764 18.2674C2.66739 18.5773 3.07938 18.748 3.51761 18.748C3.95584 18.748 4.36783 18.5773 4.67773 18.2674C4.98764 17.9576 5.15823 17.5455 5.15823 17.1072C5.15823 16.6692 4.98764 16.257 4.67773 15.9473C4.36783 15.6374 3.95584 15.4668 3.51761 15.4668ZM4.12521 17.715C3.96301 17.8773 3.7471 17.9668 3.51761 17.9668C3.28812 17.9668 3.07236 17.8773 2.91 17.715C2.74765 17.5526 2.65823 17.3369 2.65823 17.1074C2.65823 16.8777 2.74765 16.662 2.91 16.4996C3.0722 16.3373 3.28812 16.248 3.51761 16.248C3.7471 16.248 3.96286 16.3374 4.12521 16.4996C4.28757 16.662 4.37698 16.8777 4.37698 17.1074C4.37698 17.3369 4.28757 17.5526 4.12521 17.715Z" fill="black"/>
    <path d="M17.8476 3.80215C18.2723 3.1651 18.2041 2.29413 17.6424 1.73245C17.3325 1.4227 16.9205 1.25195 16.4823 1.25195C16.0441 1.25195 15.6321 1.4227 15.3222 1.73245C15.0123 2.04236 14.8417 2.45435 14.8417 2.89258C14.8417 3.33081 15.0123 3.7428 15.3222 4.0527C15.6321 4.36261 16.0441 4.5332 16.4823 4.5332C16.7623 4.5332 17.0314 4.46332 17.2702 4.33209C18.5282 5.94479 19.2186 7.94781 19.2186 9.99997C19.2186 15.0833 15.0832 19.2187 9.9999 19.2187C9.38802 19.2187 8.77614 19.1584 8.18151 19.0394C7.97002 18.9972 7.76418 19.1343 7.72176 19.3458C7.67949 19.5575 7.81667 19.7632 8.02816 19.8056C8.67314 19.9345 9.3366 20 9.9999 20C12.6709 20 15.1822 18.9598 17.071 17.071C18.9597 15.1823 19.9999 12.671 19.9999 9.99997C19.9999 7.75296 19.2368 5.56012 17.8476 3.80215ZM15.8747 3.50034C15.7123 3.33798 15.6229 3.12222 15.6229 2.89258C15.6229 2.66309 15.7123 2.44733 15.8747 2.28497C16.0369 2.12262 16.2528 2.0332 16.4823 2.0332C16.7118 2.0332 16.9277 2.12262 17.09 2.28497C17.425 2.62006 17.425 3.16525 17.09 3.50034C16.9277 3.66254 16.7118 3.75195 16.4823 3.75195C16.2526 3.75195 16.0369 3.66254 15.8747 3.50034Z" fill="black"/>
    <path d="M8.38794 16.7188C8.38794 16.9345 8.56296 17.1094 8.77856 17.1094H11.221C11.4368 17.1094 11.6117 16.9345 11.6117 16.7188V15.9615C12.1253 15.8232 12.6163 15.6197 13.0777 15.3539L13.6124 15.8885C13.6856 15.9618 13.785 16.003 13.8887 16.003C13.9922 16.003 14.0917 15.9618 14.1649 15.8884L15.8913 14.1608C16.0437 14.0082 16.0437 13.7608 15.8913 13.6084L15.3572 13.0743C15.623 12.6129 15.8266 12.1219 15.9648 11.6083H16.7192C16.935 11.6083 17.1099 11.4334 17.1099 11.2177V8.77518C17.1099 8.55942 16.935 8.38455 16.7192 8.38455H15.9647C15.8264 7.87109 15.623 7.38007 15.3572 6.91864L15.8884 6.38748C15.9616 6.31424 16.0028 6.21475 16.0028 6.11115C16.0027 6.00754 15.9615 5.90805 15.8882 5.83481L14.1605 4.10843C14.0081 3.95599 13.7607 3.95599 13.6081 4.10858L13.0777 4.63913C12.6163 4.37332 12.1253 4.16977 11.6117 4.03152V3.28125C11.6117 3.06549 11.4368 2.89062 11.221 2.89062H8.77856C8.56296 2.89062 8.38794 3.06549 8.38794 3.28125V4.03168C7.87448 4.16977 7.38345 4.37332 6.92203 4.63913L6.39148 4.10858C6.23904 3.95615 5.9917 3.95599 5.83911 4.10843L4.11151 5.83496C4.03812 5.9082 3.99692 6.00754 3.99692 6.11115C3.99692 6.21475 4.03812 6.31424 4.11136 6.38748L4.64252 6.91864C4.37671 7.38007 4.17316 7.87094 4.03491 8.38455H3.28189C3.06613 8.38455 2.89127 8.55942 2.89127 8.77502L2.88989 11.2175C2.88974 11.3211 2.93094 11.4206 3.00418 11.4938C3.07742 11.5671 3.17676 11.6083 3.28052 11.6083H4.03491C4.17316 12.1219 4.37671 12.6129 4.64252 13.0743L4.10846 13.6084C3.95602 13.7608 3.95587 14.0082 4.10846 14.1608L5.83484 15.8884C5.90808 15.9616 6.00742 16.003 6.11102 16.003H6.11118C6.21478 16.003 6.31412 15.9618 6.38736 15.8885L6.92188 15.3539C7.38345 15.6197 7.87448 15.8232 8.38794 15.9615V16.7188ZM7.07507 14.5323C6.9205 14.4324 6.7171 14.454 6.58679 14.5842L6.11118 15.0598L4.93701 13.8847L5.41217 13.4094C5.54233 13.2793 5.564 13.0759 5.46405 12.9213C5.10989 12.3732 4.86087 11.7725 4.72415 11.1356C4.68539 10.9557 4.5264 10.827 4.34222 10.827H3.6713L3.67221 9.1658H4.34222C4.5264 9.1658 4.68539 9.03732 4.72415 8.85727C4.86087 8.22052 5.10989 7.61978 5.46405 7.07169C5.564 6.91711 5.54233 6.71371 5.41217 6.58356L4.94006 6.1113L6.11514 4.93713L6.58679 5.40894C6.7171 5.53909 6.92035 5.56061 7.07507 5.46082C7.62302 5.10666 8.22376 4.85764 8.86066 4.72092C9.04056 4.68216 9.16919 4.52301 9.16919 4.33899V3.67188H10.8304V4.33884C10.8304 4.52301 10.9589 4.68216 11.1389 4.72076C11.7757 4.85764 12.3766 5.10651 12.9245 5.46066C13.0791 5.56061 13.2825 5.53909 13.4127 5.40878L13.8845 4.93713L15.0595 6.1113L14.5874 6.5834C14.4571 6.71371 14.4356 6.91711 14.5356 7.07169C14.8897 7.61978 15.1386 8.22052 15.2755 8.85727C15.3141 9.03732 15.4732 9.1658 15.6574 9.1658H16.3286V10.827H15.6574C15.4732 10.827 15.3142 10.9557 15.2755 11.1356C15.1387 11.7723 14.8897 12.3732 14.5356 12.9211C14.4356 13.0759 14.4573 13.2793 14.5874 13.4094L15.0626 13.8846L13.8884 15.0597L13.4128 14.5842C13.2825 14.4539 13.0791 14.4324 12.9245 14.5323C12.3764 14.8865 11.7757 15.1353 11.1389 15.2722C10.9589 15.311 10.8304 15.47 10.8304 15.6541V16.3281H9.16919V15.6541C9.16919 15.4701 9.04056 15.311 8.86066 15.2722C8.22391 15.1355 7.62317 14.8865 7.07507 14.5323Z" fill="black"/>
    <path d="M13.2276 9.99991C13.2276 8.22012 11.7797 6.77222 9.99991 6.77222C8.22012 6.77222 6.77222 8.22012 6.77222 9.99991C6.77222 11.7797 8.22012 13.2276 9.99991 13.2276C11.7797 13.2276 13.2276 11.7797 13.2276 9.99991ZM7.55347 9.99991C7.55347 8.65088 8.65088 7.55347 9.99991 7.55347C11.3489 7.55347 12.4464 8.65103 12.4464 9.99991C12.4464 11.3488 11.3489 12.4464 9.99991 12.4464C8.65088 12.4464 7.55347 11.3489 7.55347 9.99991Z" fill="black"/>
    <path d="M13.5969 1.47726C13.6998 1.47726 13.8005 1.43546 13.8731 1.36282C13.9457 1.28973 13.9875 1.18903 13.9875 1.08618C13.9875 0.983948 13.9459 0.883087 13.8731 0.809998C13.8005 0.737366 13.6998 0.695557 13.5969 0.695557C13.4938 0.695557 13.3935 0.737366 13.3209 0.809998C13.2481 0.883087 13.2063 0.98349 13.2063 1.08618C13.2063 1.18933 13.2481 1.28973 13.3209 1.36282C13.3935 1.43546 13.4938 1.47726 13.5969 1.47726Z" fill="black"/>
    <path d="M6.42017 18.5298C6.31747 18.5298 6.21661 18.5716 6.14398 18.6442C6.07135 18.7169 6.02954 18.8177 6.02954 18.9204C6.02954 19.0236 6.07135 19.124 6.14398 19.1966C6.21661 19.2692 6.31747 19.311 6.42017 19.311C6.52286 19.311 6.62372 19.2692 6.69635 19.1966C6.76898 19.124 6.81079 19.0231 6.81079 18.9204C6.81079 18.8177 6.76898 18.7169 6.69635 18.6442C6.62372 18.5716 6.52286 18.5298 6.42017 18.5298Z" fill="black"/>
  </g>
  <defs>
    <clipPath id="clip0">
      <rect width="20" height="20" fill="white"/>
    </clipPath>
  </defs>
</svg>
