<svg width="47" height="48" viewBox="0 0 47 48" fill="none" xmlns="http://www.w3.org/2000/svg">
  <g clip-path="url(#clip0)">
    <path d="M39.6656 45.5171H7.25195V0H32.3727L39.6656 7.44836V45.5171Z" fill="#E3E4D8"/>
    <path d="M32.3727 0V7.44836H39.6656L32.3727 0Z" fill="#D0CEBD"/>
    <path d="M7.25195 33.1033H39.6656V48H7.25195V33.1033Z" fill="#7E8BD1"/>
    <path d="M12.1139 45.5171H11.3035C10.8564 45.5171 10.4931 45.1472 10.4931 44.6898V36.4138C10.4931 35.9561 10.8564 35.5862 11.3035 35.5862H12.1139C14.7954 35.5862 16.9759 37.8131 16.9759 40.5516C16.9759 43.2902 14.7954 45.5171 12.1139 45.5171ZM12.1139 43.8622H12.1222H12.1139ZM12.1139 37.2415V43.8622C13.9015 43.8622 15.3555 42.3772 15.3555 40.5516C15.3555 38.7261 13.9015 37.2415 12.1139 37.2415Z" fill="white"/>
    <path d="M25.8899 45.517C25.5697 45.517 25.275 45.3237 25.1459 45.0157L23.4587 40.9976L21.7723 45.015C21.6275 45.3618 21.2685 45.5635 20.9046 45.5071C20.5392 45.45 20.258 45.1472 20.2215 44.7714L19.4111 36.4958C19.3666 36.0406 19.6915 35.6348 20.1372 35.5894C20.5822 35.5506 20.9799 35.8758 21.0247 36.331L21.522 41.4122L22.715 38.5704C22.8413 38.2661 23.1346 38.069 23.4587 38.069C23.7829 38.069 24.0762 38.2661 24.2035 38.5704L25.3965 41.4122L25.8939 36.331C25.9383 35.8758 26.3324 35.5499 26.7814 35.5894C27.226 35.6348 27.5512 36.0406 27.5075 36.4958L26.6971 44.7714C26.6605 45.1472 26.3794 45.4493 26.014 45.5071C25.9717 45.5137 25.9304 45.517 25.8899 45.517Z" fill="white"/>
    <path d="M33.991 45.5171H32.3799C31.0356 45.5171 29.9415 44.4001 29.9415 43.0269V38.0764C29.9415 36.7035 31.0356 35.5862 32.3799 35.5862H35.6139C36.0615 35.5862 36.4243 35.9561 36.4243 36.4138C36.4243 36.8716 36.0615 37.2415 35.6139 37.2415H32.3799C31.9295 37.2415 31.5623 37.6154 31.5623 38.0764V43.0269C31.5623 43.4879 31.9295 43.8622 32.3799 43.8622H33.991C34.4389 43.8622 34.8036 43.4897 34.8036 43.0312V40.5516C34.8036 40.0942 35.1668 39.724 35.6139 39.724C36.0615 39.724 36.4243 40.0942 36.4243 40.5516V43.0312C36.4243 44.4016 35.3328 45.5171 33.991 45.5171Z" fill="white"/>
    <path d="M35.6139 41.3792H33.9932C33.546 41.3792 33.1831 41.0093 33.1831 40.5515C33.1831 40.0941 33.546 39.7239 33.9932 39.7239H35.6139C36.0615 39.7239 36.4243 40.0941 36.4243 40.5515C36.4243 41.0093 36.0615 41.3792 35.6139 41.3792Z" fill="white"/>
    <path d="M23.4588 14.8966C23.0116 14.8966 22.6484 14.5264 22.6484 14.069V7.44824C22.6484 6.99048 23.0116 6.62061 23.4588 6.62061C23.9063 6.62061 24.2692 6.99048 24.2692 7.44824V14.069C24.2692 14.5264 23.9063 14.8966 23.4588 14.8966Z" fill="#B8ACA6"/>
    <path d="M23.4588 29.7931C23.0116 29.7931 22.6484 29.4232 22.6484 28.9655V22.3447C22.6484 21.8873 23.0116 21.5171 23.4588 21.5171C23.9063 21.5171 24.2692 21.8873 24.2692 22.3447V28.9655C24.2692 29.4232 23.9063 29.7931 23.4588 29.7931Z" fill="#B8ACA6"/>
    <path d="M33.9932 19.0347H27.5107C27.0632 19.0347 26.7003 18.6648 26.7003 18.207C26.7003 17.7493 27.0632 17.3794 27.5107 17.3794H33.9932C34.4407 17.3794 34.8036 17.7493 34.8036 18.207C34.8036 18.6648 34.4407 19.0347 33.9932 19.0347Z" fill="#B8ACA6"/>
    <path d="M19.4071 19.0347H12.9243C12.4772 19.0347 12.1139 18.6648 12.1139 18.207C12.1139 17.7493 12.4772 17.3794 12.9243 17.3794H19.4071C19.8543 17.3794 20.2175 17.7493 20.2175 18.207C20.2175 18.6648 19.8543 19.0347 19.4071 19.0347Z" fill="#B8ACA6"/>
    <path d="M19.4072 14.0691H27.5107V22.3447H19.4072V14.0691Z" fill="#988E89"/>
  </g>
  <defs>
    <clipPath id="clip0">
      <rect width="47" height="48" fill="white"/>
    </clipPath>
  </defs>
</svg>
