<svg viewBox="0 0 866 70" fill="none" xmlns="http://www.w3.org/2000/svg">
  <path fill-rule="evenodd" clip-rule="evenodd" d="M0 59.5178H5.68528V22.9188L23.4518 50.6345L41.2183 22.9188V59.5178H46.9036V12.7919H41.5736L23.4518 41.3959L5.32995 12.7919H0V59.5178ZM54.3655 59.5178H60.5838L66.802 46.9036H92.7411L99.1371 59.5178H105.533L82.4366 12.7919H77.6396L54.3655 59.5178ZM69.467 41.3959L79.7716 20.6091L90.0761 41.3959H69.467ZM112.995 59.5178H118.858V39.0863H140.711C149.416 39.0863 154.569 33.2234 154.569 25.4061C154.569 17.5888 149.061 12.7919 139.822 12.7919H112.995V59.5178ZM118.858 33.5787V18.1218H139.822C145.508 18.1218 148.528 21.1421 148.528 25.9391C148.528 30.9137 145.508 33.5787 139.645 33.5787H118.858ZM176.777 59.5178H182.64V18.1218H202.36V12.7919H157.234V18.1218H176.954V59.5178H176.777ZM226.168 60.5838C212.132 60.5838 202.005 50.2792 202.005 36.066C202.005 21.8528 212.31 11.5482 226.168 11.5482C240.203 11.5482 250.508 21.8528 250.508 36.066C250.508 50.4568 240.203 60.5838 226.168 60.5838ZM226.168 55.2538C236.65 55.2538 244.467 47.2589 244.467 36.2437C244.467 25.0508 236.827 17.2335 226.168 17.2335C215.685 17.2335 207.868 25.2284 207.868 36.2437C208.046 47.2589 215.863 55.2538 226.168 55.2538ZM261.523 59.5178H290.66C300.609 59.5178 306.472 54.0102 306.472 45.4822C306.472 40.1523 303.985 35.8883 299.01 33.0457C301.853 31.269 303.274 28.2487 303.274 24.5178C303.274 17.0558 298.655 12.9695 289.239 12.9695H261.523V59.5178ZM267.386 54.0102V36.4213H291.904C297.411 36.4213 300.431 39.9746 300.431 45.1269C300.431 50.4569 297.233 53.8325 291.904 53.8325H267.386V54.0102ZM267.386 31.0914V17.9442H289.772C294.746 17.9442 297.233 20.0761 297.233 24.5178C297.233 28.6041 294.569 31.0914 289.772 31.0914H267.386ZM312.157 59.5178H318.376L324.594 46.9036H350.533L356.929 59.5178H363.325L340.228 12.7919H335.431L312.157 59.5178ZM327.081 41.3959L337.386 20.6091L347.69 41.3959H327.081ZM399.569 59.5178H405.431V39.0863H427.284C435.99 39.0863 441.142 33.2234 441.142 25.4061C441.142 17.5888 435.635 12.7919 426.396 12.7919H399.569V59.5178ZM405.431 33.5787V18.1218H426.396C432.081 18.1218 435.102 21.1421 435.102 25.9391C435.102 30.9137 432.081 33.5787 426.218 33.5787H405.431ZM490.888 59.5178V12.7919H486.98L457.31 49.0355V12.7919H451.447V59.5178H455.178L484.848 23.2741V59.5178H490.888ZM505.812 59.5178H534.949C544.898 59.5178 550.761 54.0102 550.761 45.4822C550.761 40.1523 548.274 35.8883 543.299 33.0457C546.142 31.269 547.563 28.2487 547.563 24.5178C547.563 17.0558 542.944 12.9695 533.528 12.9695H505.812V59.5178ZM511.675 54.0102V36.4213H536.015C541.523 36.4213 544.543 39.9746 544.543 45.1269C544.543 50.4569 541.345 53.8325 536.015 53.8325H511.675V54.0102ZM511.675 31.0914V17.9442H534.061C539.036 17.9442 541.523 20.0761 541.523 24.5178C541.523 28.6041 538.858 31.0914 534.061 31.0914H511.675ZM563.376 59.5178H602.107V54.1878H569.239V37.3096H587.893V31.9797H569.239V18.2995H600.152V12.9695H563.376V59.5178ZM611.345 59.5178H617.208V39.0863H639.061C647.766 39.0863 652.919 33.2234 652.919 25.4061C652.919 17.5888 647.411 12.7919 638.173 12.7919H611.345V59.5178ZM617.03 33.5787V18.1218H637.995C643.68 18.1218 646.701 21.1421 646.701 25.9391C646.701 30.9137 643.68 33.5787 637.817 33.5787H617.03ZM699.467 44.5939C695.736 51.7005 689.873 55.2538 682.589 55.2538C672.107 55.2538 664.289 47.4365 664.289 36.2437C664.289 25.0508 672.107 17.2335 682.589 17.2335C689.34 17.2335 695.203 20.6091 698.223 26.1168L703.02 22.5635C698.579 15.6345 691.294 11.5482 682.589 11.5482C668.553 11.5482 658.426 21.8528 658.426 36.066C658.426 50.2792 668.731 60.5838 682.589 60.5838C692.005 60.5838 699.822 56.1421 704.086 47.9695L699.467 44.5939ZM708.35 59.5178H714.569L720.787 46.9036H746.726L753.122 59.5178H759.518L736.421 12.7919H731.624L708.35 59.5178ZM723.452 41.3959L733.756 20.6091L744.061 41.3959H723.452ZM806.599 59.5178V12.7919H802.69L773.02 49.0355V12.7919H767.157V59.5178H770.888L800.558 23.2741V59.5178H806.599ZM794.873 0C794.873 1.59898 794.34 3.73096 792.386 4.79695C790.964 5.50761 788.122 5.68528 786.878 5.68528C785.635 5.68528 782.97 5.68528 781.548 4.97462C779.061 3.73096 778.883 0.888325 778.883 0H774.619C774.619 2.48731 775.33 5.86294 777.462 7.81726C780.305 10.6599 784.213 10.6599 786.878 10.6599C789.543 10.6599 793.629 10.6599 796.294 7.81726C798.426 5.68528 799.137 2.30964 799.137 0H794.873ZM860.432 59.5178V70H865.584V54.1878H859.365L840.888 12.7919H836.091L818.325 54.1878H812.284V70H817.437V59.5178H860.432ZM824.366 54.0102L838.223 20.6091L853.147 54.0102H824.366Z" fill="white"/>
</svg>
