<svg viewBox="0 0 18 18" fill="none" xmlns="http://www.w3.org/2000/svg">
  <path d="M16.8581 16.184L12.9698 12.2958C14.0129 11.0967 14.6443 9.53215 14.6443 7.82217C14.6443 4.05809 11.5827 1 7.82217 1C4.05809 1 1 4.06164 1 7.82217C1 11.5827 4.06164 14.6443 7.82217 14.6443C9.53215 14.6443 11.0967 14.0129 12.2958 12.9698L16.184 16.8581C16.2763 16.9503 16.4004 17 16.5211 17C16.6417 17 16.7659 16.9539 16.8581 16.8581C17.0426 16.6736 17.0426 16.3685 16.8581 16.184ZM1.95432 7.82217C1.95432 4.5867 4.5867 1.95787 7.81862 1.95787C11.0541 1.95787 13.6829 4.59024 13.6829 7.82217C13.6829 11.0541 11.0541 13.69 7.81862 13.69C4.5867 13.69 1.95432 11.0576 1.95432 7.82217Z" fill="white" stroke="white" stroke-width="0.5"/>
</svg>
