<svg width="16" height="16" viewBox="0 0 16 16" fill="none" xmlns="http://www.w3.org/2000/svg">
  <path d="M15.8605 15.184L11.9722 11.2958C13.0152 10.0967 13.6467 8.53215 13.6467 6.82217C13.6467 3.05809 10.5851 0 6.82455 0C3.06047 0 0.00238037 3.06164 0.00238037 6.82217C0.00238037 10.5827 3.06402 13.6443 6.82455 13.6443C8.53453 13.6443 10.0991 13.0129 11.2982 11.9698L15.1864 15.8581C15.2787 15.9503 15.4028 16 15.5234 16C15.6441 16 15.7682 15.9539 15.8605 15.8581C16.045 15.6736 16.045 15.3685 15.8605 15.184ZM0.956704 6.82217C0.956704 3.5867 3.58908 0.957871 6.82101 0.957871C10.0565 0.957871 12.6853 3.59024 12.6853 6.82217C12.6853 10.0541 10.0565 12.69 6.82101 12.69C3.58908 12.69 0.956704 10.0576 0.956704 6.82217Z" fill="black"/>
</svg>
