<svg width="25" height="25" viewBox="0 0 25 25" fill="none" xmlns="http://www.w3.org/2000/svg">
  <path d="M4.18126 3.28369C2.8749 3.28369 1.81201 4.34654 1.81201 5.65294C1.81201 6.95938 2.87486 8.02218 4.18126 8.02218C5.4877 8.02218 6.55055 6.95933 6.55055 5.65294C6.55055 4.34654 5.4877 3.28369 4.18126 3.28369ZM4.1813 7.28726C3.28013 7.28726 2.54693 6.55416 2.54693 5.65294C2.54693 4.75171 3.28008 4.01861 4.1813 4.01861C5.08253 4.01861 5.81568 4.75176 5.81568 5.65294C5.81568 6.55411 5.08248 7.28726 4.1813 7.28726Z" fill="black"/>
  <path d="M4.1814 1.47144C3.97842 1.47144 3.81396 1.63594 3.81396 1.83887V2.57803C3.81396 2.78096 3.97842 2.94546 4.1814 2.94546C4.38438 2.94546 4.54883 2.78096 4.54883 2.57803V1.83887C4.54883 1.63594 4.38438 1.47144 4.1814 1.47144Z" fill="black"/>
  <path d="M7.13854 2.69611C6.99498 2.55265 6.76237 2.55261 6.61881 2.69611L6.09615 3.21877C5.95265 3.36227 5.95265 3.59494 6.09615 3.7384C6.16793 3.81018 6.26193 3.84602 6.35602 3.84602C6.45001 3.84602 6.5441 3.81018 6.61588 3.73845L7.13854 3.21579C7.28204 3.07228 7.28204 2.83962 7.13854 2.69611Z" fill="black"/>
  <path d="M7.99546 5.28552H7.25635C7.05337 5.28552 6.88892 5.45002 6.88892 5.65295C6.88892 5.85588 7.05337 6.02039 7.25635 6.02039H7.99546C8.19844 6.02039 8.36289 5.85588 8.36289 5.65295C8.36289 5.45002 8.19844 5.28552 7.99546 5.28552Z" fill="black"/>
  <path d="M7.13854 8.09008L6.61588 7.56747C6.47228 7.42396 6.23966 7.42396 6.09615 7.56747C5.95265 7.71097 5.95265 7.94364 6.09615 8.0871L6.61881 8.60975C6.69059 8.68148 6.78463 8.71737 6.87867 8.71737C6.97272 8.71737 7.06676 8.68153 7.13854 8.60975C7.28204 8.46625 7.28204 8.23358 7.13854 8.09008Z" fill="black"/>
  <path d="M4.1814 8.36047C3.97842 8.36047 3.81396 8.52498 3.81396 8.72791V9.46707C3.81396 9.67 3.97842 9.8345 4.1814 9.8345C4.38438 9.8345 4.54883 9.67 4.54883 9.46707V8.72791C4.54883 8.52498 4.38438 8.36047 4.1814 8.36047Z" fill="black"/>
  <path d="M2.26695 7.56747C2.12345 7.42396 1.89083 7.42396 1.74727 7.56747L1.22462 8.09008C1.08106 8.23358 1.08106 8.46625 1.22457 8.60975C1.29634 8.68148 1.39034 8.71737 1.48443 8.71737C1.57842 8.71737 1.67252 8.68153 1.74429 8.60975L2.26695 8.0871C2.41041 7.94359 2.41041 7.71093 2.26695 7.56747Z" fill="black"/>
  <path d="M1.10655 5.28552H0.367432C0.164453 5.28552 0 5.45002 0 5.65295C0 5.85588 0.164453 6.02039 0.367432 6.02039H1.10655C1.30952 6.02039 1.47398 5.85588 1.47398 5.65295C1.47398 5.45002 1.30952 5.28552 1.10655 5.28552Z" fill="black"/>
  <path d="M2.2672 3.21879L1.7445 2.69613C1.60094 2.55262 1.36832 2.55262 1.22482 2.69613C1.08131 2.83964 1.08131 3.0723 1.22482 3.21581L1.74747 3.73847C1.81925 3.8102 1.91329 3.84604 2.00734 3.84604C2.10133 3.84604 2.19542 3.8102 2.2672 3.73842C2.41066 3.59491 2.41066 3.36225 2.2672 3.21879Z" fill="black"/>
  <path d="M24.822 22.3233C24.1816 21.889 23.439 21.6922 22.7058 21.7319C22.029 20.7996 20.7523 20.0004 18.9933 19.4113C17.9015 19.0457 16.683 18.7818 15.3874 18.6251L18.02 12.02C18.4172 12.3069 18.7639 12.6476 19.0472 13.0331C19.1409 13.1605 19.2854 13.2326 19.4447 13.1938C20.3142 13.0362 21.2362 13.1372 22.1121 13.4862C22.9946 13.838 23.7377 14.4046 24.2609 15.1248C24.3311 15.2213 24.4423 15.2762 24.5582 15.2762C24.5876 15.2762 24.6172 15.2727 24.6466 15.2654C24.7919 15.2294 24.9007 15.1089 24.9219 14.9608C24.9358 14.8635 25.2539 12.5506 24.496 10.0308C24.4376 9.83649 24.2322 9.72638 24.0383 9.78478C23.844 9.84323 23.7338 10.0482 23.7923 10.2424C24.2347 11.7133 24.283 13.1356 24.2559 14.0031C23.7315 13.4956 23.0967 13.0875 22.3842 12.8035C21.5741 12.4807 20.7266 12.3434 19.9016 12.3983C19.9079 12.3793 19.9135 12.3607 19.9197 12.3418C20.2068 11.4647 20.4209 10.5607 20.5262 9.64308C20.6226 8.80338 20.6315 7.95518 20.5258 7.11592C20.4646 6.62989 20.3604 6.14917 20.2109 5.68257C20.2098 5.6792 20.2087 5.67559 20.2076 5.67222C21.5261 6.38653 22.5396 7.43907 23.2274 8.81109C23.3184 8.99249 23.5392 9.06578 23.7206 8.97486C23.902 8.88395 23.9753 8.66314 23.8843 8.4817C22.9725 6.66304 21.5418 5.35489 19.6309 4.59312C17.0025 3.5457 14.267 3.89023 11.7204 5.58951C9.81941 6.85792 8.70628 8.41368 8.65979 8.47926C8.57332 8.60133 8.56956 8.76363 8.65017 8.88961C8.73079 9.01559 8.87952 9.08019 9.02683 9.05279C9.90218 8.89005 10.8313 8.9899 11.7137 9.34161C12.5833 9.68824 13.3177 10.2435 13.8397 10.9489C13.9413 11.0861 14.0894 11.1705 14.2633 11.1188C14.73 11.0361 15.2115 11.0279 15.6927 11.0923L12.757 18.4582C12.6829 18.4576 12.6091 18.4563 12.5348 18.4563C10.8412 18.4563 9.22273 18.625 7.72424 18.9577C7.52615 19.0017 7.4012 19.1979 7.44524 19.3961C7.48923 19.5942 7.68513 19.7192 7.88357 19.6751C9.30945 19.3585 10.9179 19.1912 12.5348 19.1912C13.3012 19.1912 14.0681 19.2276 14.8308 19.3034C14.8335 19.3036 14.8362 19.3036 14.839 19.3038C16.2573 19.4444 17.5866 19.7151 18.7599 20.108C20.1605 20.5771 21.2419 21.1953 21.8766 21.8804C21.5564 21.9799 21.2467 22.1273 20.9578 22.3232C20.0347 22.9493 18.8417 22.9493 17.9186 22.3232C16.7448 21.5272 15.228 21.5272 14.0544 22.3232C13.1313 22.9493 11.9384 22.9493 11.0152 22.3232C9.84149 21.5272 8.32468 21.5272 7.151 22.3232C6.2279 22.9493 5.03498 22.9493 4.11183 22.3232C3.82297 22.1273 3.51325 21.9798 3.19303 21.8804C3.82687 21.1963 4.90632 20.5788 6.30422 20.1099C6.4966 20.0454 6.60027 19.8371 6.53577 19.6447C6.47126 19.4523 6.26306 19.3486 6.07058 19.4132C4.31467 20.002 3.03991 20.8006 2.36388 21.7318C1.63063 21.6921 0.888098 21.889 0.247667 22.3232C0.0796977 22.4371 0.0358988 22.6656 0.149815 22.8336C0.263682 23.0016 0.492003 23.0454 0.660168 22.9315C1.20558 22.5616 1.84523 22.4104 2.46774 22.4776C2.4901 22.4825 2.51266 22.4855 2.53532 22.4861C2.94294 22.5406 3.34147 22.6888 3.69943 22.9315C4.87307 23.7275 6.38982 23.7276 7.5636 22.9315C8.48679 22.3055 9.67977 22.3055 10.6028 22.9315C11.7765 23.7275 13.2932 23.7276 14.467 22.9315C15.3901 22.3055 16.5831 22.3055 17.5062 22.9315C18.0931 23.3295 18.7657 23.5286 19.4383 23.5286C20.1109 23.5286 20.7835 23.3295 21.3705 22.9315C21.7276 22.6893 22.1252 22.5412 22.5318 22.4865C22.5559 22.486 22.5799 22.4827 22.6037 22.4775C23.2257 22.4107 23.8648 22.5619 24.4097 22.9315C24.5776 23.0454 24.8062 23.0016 24.92 22.8336C25.0338 22.6658 24.99 22.4372 24.822 22.3233ZM14.7619 10.3225C14.7658 10.3142 14.7699 10.306 14.7738 10.2977C15.1161 9.58116 15.5154 8.88858 15.9811 8.24493C16.095 8.08761 16.0624 7.85015 15.8989 7.73184C15.739 7.61607 15.5013 7.6545 15.3858 7.81412C15.0118 8.33087 14.6795 8.87779 14.3813 9.44151C14.2736 9.64523 14.1642 9.85138 14.0718 10.0627C14.0702 10.0661 14.0685 10.0695 14.0669 10.0729C13.5056 9.46544 12.7961 8.98209 11.9858 8.65924C11.2731 8.37515 10.5313 8.23487 9.80149 8.24249C10.2921 7.69078 11.0979 6.88541 12.147 6.18863C13.1871 5.49771 14.2607 5.04668 15.3379 4.8481C16.38 4.65601 17.4316 4.70108 18.475 4.9814C18.4708 4.98369 18.4664 4.98623 18.4622 4.98853C17.8977 5.29834 17.3743 5.68062 16.8991 6.11465C16.7137 6.28394 16.5329 6.45796 16.3597 6.63956C16.2196 6.78643 16.2251 7.01905 16.372 7.15909C16.5189 7.29913 16.7515 7.29361 16.8915 7.14673C17.3625 6.65269 17.8944 6.20088 18.4749 5.8356C18.7425 5.66719 19.0218 5.51504 19.3135 5.39239C19.3901 5.56617 19.4897 5.82344 19.5833 6.1604C20.0264 7.75655 19.9067 9.47901 19.5183 11.0729C19.4348 11.4157 19.3382 11.7555 19.2288 12.0908C19.2276 12.0943 19.2264 12.0979 19.2253 12.1014C18.7253 11.5724 18.1113 11.1404 17.4161 10.8296C17.4066 10.8253 17.3971 10.8211 17.3875 10.8169C16.5654 10.454 15.6606 10.2729 14.7619 10.3225ZM14.6277 18.546C14.4573 18.5312 14.2858 18.5186 14.1133 18.5075C13.9226 18.4944 13.7316 18.4848 13.5406 18.477L16.4225 11.2466C16.5969 11.2965 16.7685 11.356 16.9367 11.424C16.964 11.4351 17.385 11.6279 17.3842 11.6299L14.6277 18.546Z" fill="black"/>
</svg>
