<svg width="18" height="18" viewBox="0 0 18 18" fill="none" xmlns="http://www.w3.org/2000/svg">
  <g clip-path="url(#clip0)">
    <path d="M13.9435 12.8733C13.8495 12.9519 13.7912 13.0578 13.7733 13.1732L13.7733 13.1733C13.6266 14.1522 14.031 15.2917 14.4784 16.1931L11.2398 14.4771L11.2398 14.4771C11.1578 14.4343 11.0664 14.4105 10.9748 14.4105C10.9296 14.4105 10.8844 14.4165 10.8404 14.4284C10.2189 14.5779 9.59971 14.652 9.00058 14.652C4.93911 14.652 1.63643 11.5866 1.63643 7.8203C1.63643 4.05402 4.94029 0.988574 9.00176 0.988574C13.0632 0.988574 16.3671 4.05402 16.3671 7.8203C16.3671 9.73523 15.4844 11.5773 13.9435 12.8733ZM13.9435 12.8733L13.9467 12.8772M13.9435 12.8733C13.9435 12.8733 13.9435 12.8733 13.9435 12.8733L13.9467 12.8772M13.9467 12.8772C13.8537 12.9549 13.7959 13.0597 13.7783 13.174L10.8417 14.4332C10.2197 14.5828 9.60015 14.657 9.00058 14.657C4.93671 14.657 1.63143 11.5897 1.63143 7.8203C1.63143 4.05091 4.93789 0.983574 9.00176 0.983574C13.0656 0.983574 16.3721 4.05091 16.3721 7.8203C16.3721 9.7368 15.4886 11.5803 13.9467 12.8772ZM15.6135 17.9385L15.6159 17.934L15.6135 17.9385C15.6967 17.9824 15.7882 18.005 15.8797 18.005C16.0235 18.005 16.1685 17.9492 16.2708 17.8457C16.441 17.6743 16.46 17.4183 16.3196 17.2267L16.3196 17.2267C16.0895 16.9153 15.6933 16.3004 15.3645 15.6017C15.036 14.9035 14.7751 14.1223 14.8138 13.4767C16.4818 12.0012 17.4349 9.95085 17.4349 7.81912C17.4349 3.50478 13.6511 -0.005 9.00058 -0.005C4.35005 -0.005 0.566289 3.50478 0.566289 7.81912C0.566289 12.1335 4.35005 15.6444 9.00058 15.6444C9.61998 15.6444 10.2558 15.5738 10.894 15.4374L15.6135 17.9385Z" fill="black" stroke="black" stroke-width="0.01"/>
  </g>
  <defs>
    <clipPath id="clip0">
      <rect width="18" height="18" fill="white"/>
    </clipPath>
  </defs>
</svg>
