<svg width="21" height="19" viewBox="0 0 21 19" fill="none" xmlns="http://www.w3.org/2000/svg">
  <path d="M20.0398 5.72534C20.0422 5.71167 20.0435 5.69833 20.0442 5.68433C20.0448 5.66799 20.0445 5.65232 20.0432 5.63598C20.0418 5.62198 20.0398 5.60864 20.0365 5.59497C20.0328 5.57897 20.0278 5.56363 20.0218 5.54829C20.0188 5.54029 20.0181 5.53196 20.0144 5.52429C20.0118 5.51862 20.0071 5.51429 20.0041 5.50862C20.0011 5.50295 19.9997 5.49695 19.9964 5.49128L16.6549 0.156703C16.6395 0.132364 16.6214 0.110359 16.6011 0.0910212C16.6007 0.0906878 16.6004 0.0906878 16.6001 0.0903544C16.5713 0.0633481 16.5372 0.0440103 16.5008 0.0286733C16.4961 0.0266729 16.4931 0.0226719 16.4881 0.0206714C16.4844 0.0193378 16.4804 0.0200046 16.4768 0.0190044C16.443 0.00766843 16.4083 0 16.3718 0H3.67399C3.6379 0 3.60348 0.00766845 3.5704 0.018671C3.56673 0.0196713 3.56305 0.0190044 3.55971 0.020338C3.5547 0.0220051 3.55169 0.026006 3.54701 0.0280065C3.51226 0.0423432 3.47951 0.0610142 3.45111 0.0863534C3.44944 0.0880205 3.4471 0.0890207 3.44543 0.0903544C3.42471 0.109692 3.40633 0.132031 3.39096 0.15637L0.0494246 5.49095C0.0460831 5.49628 0.0447465 5.50262 0.0417391 5.50828C0.0387317 5.51395 0.0340536 5.51829 0.0313803 5.52395C0.0277047 5.53162 0.0270364 5.53996 0.0236948 5.54796C0.0176801 5.5633 0.0126677 5.57863 0.00899206 5.59464C0.00598467 5.60831 0.0036456 5.62198 0.00230898 5.63598C-3.00925e-05 5.65232 -0.000364246 5.66832 0.000304061 5.68433C0.000972369 5.69833 0.00230898 5.71167 0.00464806 5.72534C0.00732129 5.74134 0.0116653 5.75701 0.0170117 5.77268C0.0213557 5.78568 0.0260339 5.79835 0.0320487 5.81102C0.035056 5.81702 0.0360585 5.82369 0.0394 5.82969C0.0447465 5.83936 0.0527662 5.8467 0.0587809 5.8557C0.0634591 5.8627 0.0661323 5.87037 0.0718129 5.87704L9.75859 17.8752C9.75926 17.8762 9.75993 17.8768 9.7606 17.8775L9.76227 17.8798C9.76327 17.8812 9.76494 17.8815 9.76594 17.8828C9.79335 17.9158 9.82743 17.9409 9.86452 17.9609C9.87454 17.9662 9.8839 17.9709 9.89426 17.9752C9.93469 17.9922 9.97746 18.0042 10.0222 18.0042C10.0603 18.0042 10.0988 17.9975 10.1369 17.9839C10.1425 17.9819 10.1462 17.9772 10.1519 17.9749C10.1689 17.9679 10.1823 17.9565 10.1977 17.9469C10.2231 17.9308 10.2468 17.9142 10.2665 17.8925C10.2712 17.8875 10.2782 17.8852 10.2825 17.8798L19.973 5.87704C19.9783 5.87037 19.981 5.86237 19.986 5.8557C19.9924 5.8467 20.0001 5.83936 20.0054 5.82969C20.0088 5.82369 20.0098 5.81702 20.0128 5.81102C20.0188 5.79835 20.0235 5.78602 20.0278 5.77268C20.0325 5.75701 20.0372 5.74167 20.0398 5.72534ZM10.7246 0.667156H15.8903L14.2663 5.0165L10.7246 0.667156ZM13.6642 5.33491H6.38063L10.0222 0.862868L13.6642 5.33491ZM5.75476 5.04551L4.15116 0.667156H9.32018L5.75476 5.04551ZM13.8984 6.00173L9.96376 16.5395L6.10462 6.00173H13.8984ZM16.4473 1.08492L19.1095 5.33524H14.8605L16.4473 1.08492ZM3.59413 1.08925L5.14894 5.33491H0.934932L3.59413 1.08925ZM5.39321 6.00173L9.0151 15.892L1.03017 6.00173H5.39321ZM10.8232 16.1474L14.6115 6.00173H19.0143L10.8232 16.1474Z" fill="black"/>
</svg>
