<svg width="25" height="25" viewBox="0 0 25 32" fill="none" xmlns="http://www.w3.org/2000/svg">
  <path d="M20.8008 15.7227C21.6099 15.7227 22.2656 16.3784 22.2656 17.1875C22.2656 17.9961 21.6094 18.6523 20.8008 18.6523H20.166L20.1567 18.6909C20.8057 18.8408 21.2891 19.4224 21.2891 20.1172C21.2891 20.9258 20.6328 21.582 19.8242 21.582H18.8477C19.6567 21.582 20.3125 22.2378 20.3125 23.0469C20.3125 23.856 19.6567 24.5117 18.8477 24.5117C18.2655 24.5117 14.1519 24.5117 13.5967 24.5117C10.9224 24.5117 10.2114 24.1836 7.61719 23.5352V13.7695C7.66885 13.7291 15.4297 12.3106 15.4297 7.61719V7.12891C15.4297 6.31982 16.0854 5.66406 16.8945 5.66406C17.7026 5.66406 18.3579 6.31836 18.3594 7.12646C18.3691 7.12646 18.6748 10.209 17.3828 12.793H21.7773C22.5864 12.793 23.2422 13.4487 23.2422 14.2578C23.2422 15.0664 22.5859 15.7227 21.7773 15.7227H20.8008Z" fill="#FFBFAB"/>
  <path d="M7.61719 13.7695V23.5352C7.61719 24.0747 7.18018 24.5117 6.64062 24.5117H1.75781V12.793H6.64062C7.18018 12.793 7.61719 13.23 7.61719 13.7695Z" fill="#7BD8E8"/>
  <path d="M5.66406 15.2344C5.39453 15.2344 5.17578 15.4531 5.17578 15.7227C5.17578 15.9922 5.39453 16.2109 5.66406 16.2109C5.93359 16.2109 6.15234 15.9922 6.15234 15.7227C6.15234 15.4531 5.93359 15.2344 5.66406 15.2344Z" fill="black"/>
  <path d="M21.7773 12.3047H18.1322C18.6965 10.8592 18.925 9.15786 18.8809 7.64336C18.8725 7.35435 18.8614 7.18721 18.8464 7.08198C18.8212 6.02695 17.9549 5.17578 16.8945 5.17578C15.8176 5.17578 14.9414 6.05195 14.9414 7.12891V7.61719C14.9414 10.7054 10.9759 12.4405 7.9832 13.1845C7.75693 12.6672 7.24043 12.3047 6.64062 12.3047H1.75781C1.48818 12.3047 1.26953 12.5233 1.26953 12.793V24.5117C1.26953 24.7813 1.48818 25 1.75781 25H6.64062C7.23643 25 7.74995 24.6422 7.97856 24.1304C8.22637 24.194 8.4564 24.2541 8.66875 24.3095C10.3736 24.7548 11.3127 25 13.5967 25H18.8477C19.9246 25 20.8008 24.1238 20.8008 23.0469C20.8008 22.6453 20.6789 22.2718 20.4702 21.961C21.2245 21.6972 21.7773 20.9765 21.7773 20.1172C21.7773 19.7171 21.6584 19.3423 21.4504 19.0302C22.2014 18.7659 22.7539 18.0469 22.7539 17.1875C22.7539 16.7859 22.632 16.4124 22.4233 16.1017C23.1776 15.8378 23.7305 15.1171 23.7305 14.2578C23.7305 13.1809 22.8543 12.3047 21.7773 12.3047ZM7.12891 23.5352C7.12891 23.8044 6.90986 24.0234 6.64062 24.0234H2.24609V13.2812H6.64062C6.90986 13.2812 7.12891 13.5003 7.12891 13.7695V23.5352ZM21.7773 15.2344C20.73 15.2344 20.4804 15.2344 19.3359 15.2344C19.0663 15.2344 18.8477 15.453 18.8477 15.7227C18.8477 15.9923 19.0663 16.2109 19.3359 16.2109H20.8008C21.3393 16.2109 21.7773 16.649 21.7773 17.1875C21.7773 17.7269 21.3401 18.1641 20.8008 18.1641H18.3594C18.0897 18.1641 17.8711 18.3827 17.8711 18.6523C17.8711 18.922 18.0897 19.1406 18.3594 19.1406H19.8242C20.3563 19.1406 20.8008 19.5657 20.8008 20.1172C20.8008 20.6565 20.3636 21.0938 19.8242 21.0938C18.7769 21.0938 18.5272 21.0938 17.3828 21.0938C17.1132 21.0938 16.8945 21.3124 16.8945 21.582C16.8945 21.8517 17.1132 22.0703 17.3828 22.0703H18.8477C19.3861 22.0703 19.8242 22.5084 19.8242 23.0469C19.8242 23.5854 19.3861 24.0234 18.8477 24.0234H13.5967C11.4381 24.0234 10.5951 23.8033 8.91553 23.3646C8.66948 23.3004 8.39961 23.2299 8.10547 23.1549V14.1614C11.6391 13.3197 15.918 11.2652 15.918 7.61719V7.12891C15.918 6.59043 16.3561 6.15234 16.8945 6.15234C17.432 6.15234 17.8701 6.58975 17.8711 7.12739V7.12891C17.8711 7.34111 18.1359 9.94546 17.0739 12.3047H15.4297C15.1601 12.3047 14.9414 12.5233 14.9414 12.793C14.9414 13.0626 15.1601 13.2812 15.4297 13.2812C15.7707 13.2812 21.2208 13.2812 21.7773 13.2812C22.3158 13.2812 22.7539 13.7193 22.7539 14.2578C22.7539 14.7972 22.3167 15.2344 21.7773 15.2344Z" fill="black"/>
  <path d="M5.66406 17.1875C5.39443 17.1875 5.17578 17.4062 5.17578 17.6758V21.582C5.17578 21.8517 5.39443 22.0703 5.66406 22.0703C5.93369 22.0703 6.15234 21.8517 6.15234 21.582V17.6758C6.15234 17.4062 5.93369 17.1875 5.66406 17.1875Z" fill="black"/>
</svg>
