<svg viewBox="0 0 164 148" fill="none" xmlns="http://www.w3.org/2000/svg">
  <path fill-rule="evenodd" clip-rule="evenodd" d="M22.2716 82.4868V68.3862H23.8624L29.575 76.9912L35.2875 68.3862H36.8783V82.4868H35.1429V71.4956L29.575 79.8113L24.0071 71.4956V82.4868H22.2716Z" fill="black"/>
  <path fill-rule="evenodd" clip-rule="evenodd" d="M45.4832 76.9912H51.7019L48.5926 70.7725L45.4832 76.9912ZM40.9277 82.4868L47.7972 68.3862H49.2434L56.1852 82.4868H54.3051L52.425 78.7266H44.6878L42.8077 82.4868H40.9277Z" fill="black"/>
  <path fill-rule="evenodd" clip-rule="evenodd" d="M62.1147 74.6772H68.3334C69.2011 74.6772 69.8519 74.4603 70.3581 74.0988C70.7919 73.7372 71.0088 73.1587 71.0088 72.3633C71.0088 71.6402 70.7919 71.0617 70.3581 70.6279C69.9242 70.194 69.2734 69.9771 68.4057 69.9771H62.1147V74.6772ZM60.3792 82.4868V68.3862H68.478C69.8519 68.3862 70.9365 68.7478 71.7319 69.3986C72.5274 70.0494 72.8889 70.9894 72.8889 72.2187C72.8889 73.448 72.5274 74.4603 71.7319 75.1834C71.0088 75.9065 69.9965 76.3404 68.6949 76.3404H62.1147V82.4868H60.3792Z" fill="black"/>
  <path fill-rule="evenodd" clip-rule="evenodd" d="M80.2645 82.4868V69.9771H74.3351V68.3862H88.0017V69.9771H82.0723V82.4868H80.2645Z" fill="black"/>
  <path fill-rule="evenodd" clip-rule="evenodd" d="M96.9682 81.1852C98.5591 81.1852 99.8606 80.679 100.873 79.5944C101.885 78.5097 102.392 77.1358 102.392 75.4727C102.392 73.8096 101.885 72.4357 100.873 71.351C99.8606 70.2664 98.5591 69.7602 96.9682 69.7602C95.3774 69.7602 94.0758 70.3387 93.0635 71.4233C92.0511 72.508 91.5449 73.8819 91.5449 75.545C91.5449 77.2081 92.0511 78.5821 93.0635 79.6667C94.0758 80.6067 95.3774 81.1852 96.9682 81.1852ZM96.9682 82.8484C94.8712 82.8484 93.1358 82.1253 91.7619 80.7514C90.388 79.3775 89.7372 77.5697 89.7372 75.4727C89.7372 73.3034 90.4603 71.5679 91.8342 70.194C93.2081 68.8201 94.9435 68.097 97.0405 68.097C99.1375 68.097 100.873 68.8201 102.247 70.194C103.621 71.5679 104.344 73.3757 104.344 75.4727C104.344 77.642 103.621 79.3775 102.247 80.7514C100.801 82.1253 99.0652 82.8484 96.9682 82.8484Z" fill="black"/>
  <path fill-rule="evenodd" clip-rule="evenodd" d="M111.141 73.9541H117.866C118.589 73.9541 119.168 73.8095 119.529 73.448C119.891 73.0864 120.108 72.6525 120.108 72.0018C120.108 71.351 119.891 70.8448 119.529 70.4832C119.168 70.1217 118.589 69.9771 117.794 69.9771H111.069V73.9541H111.141ZM111.141 80.8236H118.517C119.312 80.8236 119.963 80.6067 120.397 80.1005C120.831 79.5943 121.12 79.0159 121.12 78.1481C121.12 77.3527 120.903 76.7019 120.397 76.1958C119.963 75.6896 119.312 75.4727 118.517 75.4727H111.141V80.8236ZM109.406 82.4868V68.3862H117.721C119.095 68.3862 120.18 68.6755 120.831 69.254C121.554 69.8324 121.915 70.7002 121.915 71.8571C121.915 72.4356 121.771 72.9418 121.554 73.3757C121.337 73.8095 121.048 74.1711 120.614 74.4603C121.337 74.8942 121.915 75.4003 122.277 76.0511C122.638 76.7019 122.855 77.425 122.855 78.2205C122.855 79.522 122.422 80.5344 121.554 81.3298C120.686 82.1252 119.529 82.4868 118.083 82.4868H109.406Z" fill="black"/>
  <path fill-rule="evenodd" clip-rule="evenodd" d="M130.954 76.9912H137.173L134.063 70.7725L130.954 76.9912ZM126.399 82.4868L133.268 68.3862H134.714L141.656 82.4868H139.776L137.896 78.7266H130.086L128.206 82.4868H126.399Z" fill="black"/>
  <path fill-rule="evenodd" clip-rule="evenodd" d="M63.0547 36.0635V40.4021C63.4885 40.3298 64.5009 39.7513 65.0071 39.5344C67.2487 38.5943 69.7072 38.0159 72.2381 38.0159C79.3245 37.9435 83.6632 42.5714 91.2557 42.716C93.7143 42.716 96.5344 42.2099 98.776 41.4144C99.4991 41.1252 100.295 40.7636 100.873 40.5467V36.2081C99.5714 36.642 98.993 37.2204 96.679 37.8712C90.7496 39.6067 87.1341 38.2328 82 36.2081C77.0106 34.2557 72.9612 33.0987 67.321 34.545C66.0917 34.8342 63.9947 35.485 63.0547 36.0635Z" fill="black"/>
  <path fill-rule="evenodd" clip-rule="evenodd" d="M63.0547 48.067V52.261C64.067 52.0441 66.7425 49.9471 72.3827 49.8748C75.9983 49.8025 79.0353 51.1041 81.8554 52.261C87.0617 54.358 90.9665 55.2981 96.6067 53.9242C97.6191 53.7072 100.222 52.8395 100.945 52.3333V47.9947C97.9083 49.3686 95.5944 50.381 91.545 50.4533C87.7848 50.4533 85.0371 49.224 82.0723 48.067C76.9383 46.1146 73.0335 44.8854 67.2487 46.4039C66.4533 46.5485 63.2716 47.5609 63.0547 48.067Z" fill="black"/>
  <path fill-rule="evenodd" clip-rule="evenodd" d="M23.2839 98.0336H23.9347V95.7196H26.3933C27.4056 95.7196 27.9841 95.0688 27.9841 94.2011C27.9841 93.3334 27.3333 92.7549 26.321 92.7549H23.2839V98.0336ZM23.9347 95.0688V93.3334H26.321C26.9718 93.3334 27.3333 93.6949 27.3333 94.2011C27.3333 94.7796 26.9718 95.0688 26.321 95.0688H23.9347Z" fill="black"/>
  <path fill-rule="evenodd" clip-rule="evenodd" d="M41.6508 98.0336V92.7549H41.2169L37.8907 96.8766V92.7549H37.2399V98.0336H37.6737L41 93.9119V98.0336H41.6508Z" fill="black"/>
  <path fill-rule="evenodd" clip-rule="evenodd" d="M51.485 98.0336H54.8113C55.8959 98.0336 56.619 97.3828 56.619 96.4427C56.619 95.8642 56.3298 95.3581 55.7513 94.9965C56.0405 94.7796 56.2575 94.418 56.2575 94.0565C56.2575 93.1887 55.7513 92.7549 54.6666 92.7549H51.5573V98.0336H51.485ZM52.1358 97.4551V95.5027H54.8836C55.5344 95.5027 55.8236 95.9366 55.8236 96.515C55.8236 97.0935 55.4621 97.5274 54.8836 97.5274H52.1358V97.4551ZM52.1358 94.8519V93.4057H54.6666C55.2451 93.4057 55.5344 93.6226 55.5344 94.1288C55.5344 94.5627 55.2451 94.8519 54.6666 94.8519H52.1358Z" fill="black"/>
  <path fill-rule="evenodd" clip-rule="evenodd" d="M66.0917 98.0336H70.4304V97.4551H66.7425V95.5027H68.8395V94.9242H66.7425V93.3334H70.2134V92.7549H66.0917V98.0336Z" fill="black"/>
  <path fill-rule="evenodd" clip-rule="evenodd" d="M79.6137 98.0336H80.2645V95.7196H82.7231C83.7354 95.7196 84.3139 95.0688 84.3139 94.2011C84.3139 93.3334 83.6631 92.7549 82.6507 92.7549H79.6137V98.0336ZM80.2645 95.0688V93.3334H82.6507C83.3015 93.3334 83.6631 93.6949 83.6631 94.2011C83.6631 94.7796 83.3015 95.0688 82.6507 95.0688H80.2645Z" fill="black"/>
  <path fill-rule="evenodd" clip-rule="evenodd" d="M97.619 96.3703C97.1852 97.1657 96.5344 97.5996 95.7389 97.5996C94.582 97.5996 93.7143 96.7319 93.7143 95.4303C93.7143 94.201 94.582 93.261 95.7389 93.261C96.5344 93.261 97.1852 93.6225 97.4744 94.2733L98.0529 93.9118C97.5467 93.1164 96.7513 92.6825 95.7389 92.6825C94.1481 92.6825 92.9911 93.8395 92.9911 95.4303C92.9911 97.0211 94.1481 98.1781 95.7389 98.1781C96.8236 98.1781 97.6913 97.6719 98.1975 96.7319L97.619 96.3703Z" fill="black"/>
  <path fill-rule="evenodd" clip-rule="evenodd" d="M106.73 98.0336H107.453L108.176 96.5873H111.069L111.792 98.0336H112.515L109.912 92.7549H109.333L106.73 98.0336ZM108.466 96.0089L109.623 93.6949L110.78 96.0089H108.466Z" fill="black"/>
  <path fill-rule="evenodd" clip-rule="evenodd" d="M125.965 98.0335V92.7548H125.531L122.205 96.8765V92.7548H121.481V98.0335H121.915L125.242 93.9118V98.0335H125.965ZM124.663 91.3086C124.663 91.4532 124.591 91.7425 124.374 91.8871C124.229 91.9594 123.868 91.9594 123.723 91.9594C123.578 91.9594 123.289 91.9594 123.145 91.8871C122.855 91.7425 122.855 91.4532 122.855 91.3086H122.349C122.349 91.5978 122.421 91.9594 122.638 92.1763C122.928 92.4656 123.434 92.4656 123.723 92.4656C124.012 92.4656 124.446 92.4656 124.808 92.1763C125.025 91.9594 125.097 91.5255 125.097 91.3086H124.663Z" fill="black"/>
  <path fill-rule="evenodd" clip-rule="evenodd" d="M140.138 98.0335V99.1904H140.716V97.3827H139.993L137.896 92.6825H137.39L135.365 97.3827H134.714V99.1904H135.293V98.0335H140.138ZM136.088 97.455L137.679 93.6948L139.342 97.455H136.088Z" fill="black"/>
  <path fill-rule="evenodd" clip-rule="evenodd" d="M23.2839 98.0336H23.9347V95.7196H26.3933C27.4056 95.7196 27.9841 95.0688 27.9841 94.2011C27.9841 93.3334 27.3333 92.7549 26.321 92.7549H23.2839V98.0336ZM23.9347 95.0688V93.3334H26.321C26.9718 93.3334 27.3333 93.6949 27.3333 94.2011C27.3333 94.7796 26.9718 95.0688 26.321 95.0688H23.9347V95.0688Z" stroke="black" stroke-width="0.216" stroke-miterlimit="22.9256"/>
  <path fill-rule="evenodd" clip-rule="evenodd" d="M41.6508 98.0336V92.7549H41.2169L37.8907 96.8766V92.7549H37.2399V98.0336H37.6737L41 93.9119V98.0336H41.6508Z" stroke="black" stroke-width="0.216" stroke-miterlimit="22.9256"/>
  <path fill-rule="evenodd" clip-rule="evenodd" d="M51.485 98.0336H54.8113C55.8959 98.0336 56.619 97.3828 56.619 96.4427C56.619 95.8642 56.3298 95.3581 55.7513 94.9965C56.0405 94.7796 56.2575 94.418 56.2575 94.0565C56.2575 93.1887 55.7513 92.7549 54.6666 92.7549H51.5573V98.0336H51.485ZM52.1358 97.4551V95.5027H54.8836C55.5344 95.5027 55.8236 95.9366 55.8236 96.515C55.8236 97.0935 55.4621 97.5274 54.8836 97.5274H52.1358V97.4551ZM52.1358 94.8519V93.4057H54.6666C55.2451 93.4057 55.5344 93.6226 55.5344 94.1288C55.5344 94.5627 55.2451 94.8519 54.6666 94.8519H52.1358Z" stroke="black" stroke-width="0.216" stroke-miterlimit="22.9256"/>
  <path fill-rule="evenodd" clip-rule="evenodd" d="M66.0917 98.0336H70.4304V97.4551H66.7425V95.5027H68.8395V94.9242H66.7425V93.3334H70.2134V92.7549H66.0917V98.0336Z" stroke="black" stroke-width="0.216" stroke-miterlimit="22.9256"/>
  <path fill-rule="evenodd" clip-rule="evenodd" d="M79.6137 98.0336H80.2645V95.7196H82.7231C83.7354 95.7196 84.3139 95.0688 84.3139 94.2011C84.3139 93.3334 83.6631 92.7549 82.6507 92.7549H79.6137V98.0336V98.0336ZM80.2645 95.0688V93.3334H82.6507C83.3015 93.3334 83.6631 93.6949 83.6631 94.2011C83.6631 94.7796 83.3015 95.0688 82.6507 95.0688H80.2645V95.0688Z" stroke="black" stroke-width="0.216" stroke-miterlimit="22.9256"/>
  <path fill-rule="evenodd" clip-rule="evenodd" d="M97.619 96.3703C97.1852 97.1657 96.5344 97.5996 95.7389 97.5996C94.582 97.5996 93.7143 96.7319 93.7143 95.4303C93.7143 94.201 94.582 93.261 95.7389 93.261C96.5344 93.261 97.1852 93.6225 97.4744 94.2733L98.0529 93.9118C97.5467 93.1164 96.7513 92.6825 95.7389 92.6825C94.1481 92.6825 92.9911 93.8395 92.9911 95.4303C92.9911 97.0211 94.1481 98.1781 95.7389 98.1781C96.8236 98.1781 97.6913 97.6719 98.1975 96.7319L97.619 96.3703Z" stroke="black" stroke-width="0.216" stroke-miterlimit="22.9256"/>
  <path fill-rule="evenodd" clip-rule="evenodd" d="M106.73 98.0336H107.453L108.176 96.5873H111.069L111.792 98.0336H112.515L109.912 92.7549H109.333L106.73 98.0336ZM108.466 96.0089L109.623 93.6949L110.78 96.0089H108.466Z" stroke="black" stroke-width="0.216" stroke-miterlimit="22.9256"/>
  <path fill-rule="evenodd" clip-rule="evenodd" d="M125.965 98.0335V92.7548H125.531L122.205 96.8765V92.7548H121.481V98.0335H121.915L125.242 93.9118V98.0335H125.965ZM124.663 91.3086C124.663 91.4532 124.591 91.7425 124.374 91.8871C124.229 91.9594 123.868 91.9594 123.723 91.9594C123.578 91.9594 123.289 91.9594 123.145 91.8871C122.855 91.7425 122.855 91.4532 122.855 91.3086H122.349C122.349 91.5978 122.421 91.9594 122.638 92.1763C122.928 92.4656 123.434 92.4656 123.723 92.4656C124.012 92.4656 124.446 92.4656 124.808 92.1763C125.025 91.9594 125.097 91.5255 125.097 91.3086H124.663Z" stroke="black" stroke-width="0.216" stroke-miterlimit="22.9256"/>
  <path fill-rule="evenodd" clip-rule="evenodd" d="M140.138 98.0335V99.1904H140.716V97.3827H139.993L137.896 92.6825H137.39L135.365 97.3827H134.714V99.1904H135.293V98.0335H140.138ZM136.088 97.455L137.679 93.6948L139.342 97.455H136.088Z" stroke="black" stroke-width="0.216" stroke-miterlimit="22.9256"/>
</svg>
