<svg width="505" height="78" viewBox="0 0 505 78" fill="none" xmlns="http://www.w3.org/2000/svg">
  <path d="M51.36 42.92C51.36 43.9333 51.1467 44.44 50.72 44.44C50.56 44.44 50.4533 44.2 50.4 43.72C50.2933 42.7067 49.92 41.96 49.28 41.48C47.36 45.1067 43.52 48.52 37.76 51.72C32 54.9733 27.0133 56.6 22.8 56.6C19.28 56.6 17.52 55.4267 17.52 53.08C17.52 50.9467 18.88 48.7333 21.6 46.44C23.5733 44.7867 25.84 43.3733 28.4 42.2C30.4267 41.2933 33.0933 40.4933 36.4 39.8C39.76 39.0533 42.5067 38.68 44.64 38.68C44.8533 38.04 44.96 37.4267 44.96 36.84C44.96 33.4267 42.4267 31.4533 37.36 30.92C35.5467 31.72 33.5733 32.12 31.44 32.12C28.6667 32.12 27.28 31.6933 27.28 30.84C27.28 30.0933 29.2 29.56 33.04 29.24C36.1333 28.9733 39.04 28.3067 41.76 27.24C45.12 25.96 48.16 24.1467 50.88 21.8C54.2933 18.92 56 16.0133 56 13.08C56 8.54669 51.8133 5.6667 43.44 4.44003C27.2267 23.32 17.28 39.16 13.6 51.96C13.0133 53.8267 12.72 55.3733 12.72 56.6C12.72 58.1467 13.1733 58.92 14.08 58.92C14.4 58.92 14.8533 58.84 15.44 58.68C16.08 58.5733 16.56 58.52 16.88 58.52C17.2533 58.52 17.44 58.5733 17.44 58.68C17.44 59 16.56 59.3733 14.8 59.8C13.0933 60.2267 11.92 60.44 11.28 60.44C8.9333 60.44 7.75997 59.24 7.75997 56.84C7.75997 52.4667 11.4933 44.3333 18.96 32.44C24.4533 23.7467 29.9467 15.88 35.44 8.84003C35.3867 8.36003 36.4267 6.76003 38.56 4.04003C37.7067 3.9867 36.8533 3.96003 36 3.96003C23.04 3.96003 13.44 7.48003 7.19997 14.52C4.58664 17.5067 3.27997 20.2 3.27997 22.6C3.27997 23.6133 3.62664 24.4667 4.31997 25.16C5.0133 25.8533 5.35997 26.2267 5.35997 26.28C5.35997 26.3867 5.2533 26.44 5.03997 26.44C3.70664 26.44 2.6133 25.7733 1.75997 24.44C1.06664 23.32 0.719971 22.04 0.719971 20.6C0.719971 18.1467 1.62664 15.8 3.43997 13.56C6.74664 9.45336 12.3733 6.41336 20.32 4.44003C26.5067 2.89336 33.04 2.17336 39.92 2.28003C40.08 2.06669 40.24 1.82669 40.4 1.56003C41.4133 0.706695 42.8267 0.280029 44.64 0.280029C45.7067 0.280029 46.24 0.520029 46.24 1.00003C46.24 1.16003 45.8667 1.66669 45.12 2.52003C55.68 3.42669 60.96 6.49336 60.96 11.72C60.96 15.6667 58.2933 19.6933 52.96 23.8C48 27.64 43.44 29.72 39.28 30.04C42.1067 30.2 44.5067 30.8933 46.48 32.12C49.04 33.6667 50.32 35.56 50.32 37.8C50.32 38.4933 50.1867 39.2133 49.92 39.96C50.88 40.6533 51.36 41.64 51.36 42.92ZM44.08 40.2C41.7867 40.2 39.0933 40.6 36 41.4C32.7467 42.2 30.1867 43.1333 28.32 44.2C23.5733 47.0267 21.2 49.72 21.2 52.28C21.2 53.8267 22.2667 54.6 24.4 54.6C27.6533 54.6 31.44 52.9733 35.76 49.72C39.92 46.5733 42.6933 43.4 44.08 40.2ZM72.0088 51.64C69.6088 51.64 68.4088 49.9067 68.4088 46.44C68.4088 44.2533 68.7554 41.6133 69.4488 38.52C68.0088 40.92 65.8488 43.5333 62.9688 46.36C59.5021 49.8267 56.7554 51.56 54.7288 51.56C53.7154 51.56 53.2088 50.8667 53.2088 49.48C53.2088 46.2267 54.7288 42.12 57.7688 37.16C61.0221 31.72 64.1688 29.1333 67.2088 29.4C68.9154 28.5467 70.2488 28.12 71.2088 28.12C71.5288 28.12 72.6221 28.2533 74.4888 28.52C75.2354 28.2 75.8488 28.04 76.3288 28.04C76.9154 28.04 77.2088 28.3067 77.2088 28.84C77.2088 29.32 76.9154 30.2267 76.3288 31.56C75.7421 32.8933 75.2888 33.6133 74.9688 33.72C74.2221 35.16 73.5554 37.1867 72.9688 39.8C72.4354 42.36 72.1688 44.4933 72.1688 46.2C72.1688 48.2267 72.7554 49.24 73.9288 49.24C75.0488 49.24 76.4088 48.52 78.0088 47.08C79.6088 45.64 80.3821 44.92 80.3288 44.92C80.4354 44.92 80.4888 44.9733 80.4888 45.08C80.4888 46.2533 79.1554 47.8267 76.4887 49.8C74.8354 51.0267 73.3421 51.64 72.0088 51.64ZM72.1688 30.36C71.6888 30.1467 71.1821 30.04 70.6488 30.04C68.6754 30.04 66.8621 30.9467 65.2088 32.76C63.7688 34.3067 62.2754 36.5467 60.7288 39.48C59.1821 42.36 58.0621 44.9467 57.3688 47.24C57.2088 47.6667 57.1288 48.0133 57.1288 48.28C57.1288 48.6533 57.2621 48.84 57.5288 48.84C57.9021 48.84 58.5154 48.52 59.3688 47.88C62.1954 45.8533 64.7021 43.2133 66.8888 39.96C68.0088 38.2 69.7688 35 72.1688 30.36ZM95.3956 40.84C92.5156 44.2 90.0356 46.68 87.9556 48.28C85.8756 49.8267 84.2756 50.6 83.1556 50.6C81.1823 50.6 80.1956 49.56 80.1956 47.48C80.1956 45.6667 80.7823 43.5067 81.9556 41C82.0623 40.84 82.3556 40.28 82.8356 39.32C83.369 38.3067 84.1423 36.8667 85.1556 35H84.9956C84.6756 35 84.5156 34.8667 84.5156 34.6C84.5156 34.44 84.5423 34.3067 84.5956 34.2C85.449 32.6 86.1423 31.4 86.6756 30.6C87.209 29.7467 87.7156 29.1333 88.1956 28.76C88.6756 28.3867 89.1823 28.1733 89.7156 28.12C90.3023 28.0667 91.0756 28.04 92.0356 28.04C92.3023 28.04 92.4356 28.2 92.4356 28.52C92.4356 28.8933 91.0223 31.3467 88.1956 35.88C87.769 36.52 87.3156 37.3733 86.8356 38.44C86.3556 39.4533 85.9023 40.4933 85.4756 41.56C85.1023 42.5733 84.7823 43.5333 84.5156 44.44C84.249 45.3467 84.1156 46.0133 84.1156 46.44C84.1156 47.1867 84.3556 47.56 84.8356 47.56C85.369 47.56 86.1156 47.2667 87.0756 46.68C88.089 46.0933 89.1823 45.32 90.3556 44.36C91.529 43.3467 92.729 42.2 93.9556 40.92C95.2356 39.64 96.409 38.3067 97.4756 36.92C97.6356 36.6 97.7956 36.28 97.9556 35.96C98.169 35.5867 98.3823 35.2133 98.5956 34.84H98.4356C98.1156 34.84 97.9556 34.7067 97.9556 34.44C97.9556 34.28 97.9823 34.1467 98.0356 34.04C98.889 32.44 99.5823 31.24 100.116 30.44C100.649 29.5867 101.156 28.9733 101.636 28.6C102.116 28.2267 102.622 28.0133 103.156 27.96C103.742 27.9067 104.516 27.88 105.476 27.88C105.742 27.88 105.876 28.04 105.876 28.36C105.876 28.7333 104.462 31.1867 101.636 35.72C101.209 36.36 100.756 37.2133 100.276 38.28C99.7956 39.2933 99.3423 40.3333 98.9156 41.4C98.5423 42.4133 98.2223 43.3733 97.9556 44.28C97.689 45.1867 97.5556 45.8533 97.5556 46.28C97.5556 47.0267 97.7956 47.4 98.2756 47.4C98.969 47.4 99.8756 46.9733 100.996 46.12C102.116 45.2667 103.316 44.1467 104.596 42.76C105.929 41.32 107.262 39.72 108.596 37.96C109.929 36.2 111.156 34.44 112.276 32.68L112.516 31.8C112.942 30.2 113.609 29.1067 114.516 28.52C115.422 27.9333 116.596 27.64 118.036 27.64C118.889 27.64 119.316 27.8533 119.316 28.28C119.316 28.44 119.156 28.76 118.836 29.24C118.516 29.6667 118.142 30.1467 117.716 30.68C117.342 31.16 116.969 31.6133 116.596 32.04C116.276 32.4133 116.116 32.6267 116.116 32.68C115.849 33.16 115.556 33.96 115.236 35.08C114.969 36.1467 114.702 37.32 114.436 38.6C114.222 39.8267 114.036 41.08 113.876 42.36C113.716 43.5867 113.636 44.6 113.636 45.4C113.636 47.8 114.249 49 115.476 49C115.902 49 116.489 48.7867 117.236 48.36C118.036 47.88 118.782 47.3733 119.476 46.84C120.222 46.3067 120.836 45.8267 121.316 45.4C121.849 44.92 122.036 44.68 121.876 44.68C121.929 44.68 121.956 44.7333 121.956 44.84C121.956 45.16 121.689 45.6933 121.156 46.44C120.676 47.1333 120.036 47.8533 119.236 48.6C118.436 49.3467 117.529 50.0133 116.516 50.6C115.502 51.1333 114.489 51.4 113.476 51.4C111.129 51.4 109.956 49.6667 109.956 46.2C109.956 45.6667 110.009 44.92 110.116 43.96C110.222 43 110.329 42.04 110.436 41.08C110.596 40.12 110.729 39.2667 110.836 38.52C110.996 37.72 111.076 37.1867 111.076 36.92C104.036 45.9333 99.209 50.44 96.5956 50.44C94.6223 50.44 93.6356 49.4 93.6356 47.32C93.6356 45.5067 94.2223 43.3467 95.3956 40.84ZM148.928 36.2C149.461 35.7733 149.968 35.32 150.448 34.84C150.981 34.36 151.354 33.9067 151.568 33.48C152.208 32.1467 152.101 31.0267 151.248 30.12C150.448 29.2133 149.248 28.76 147.648 28.76C146.741 28.76 145.941 28.9733 145.247 29.4C144.608 29.7733 144.154 30.2533 143.888 30.84C143.728 31.16 143.594 31.5867 143.488 32.12C143.434 32.6 143.354 32.9733 143.248 33.24C143.194 33.2933 143.141 33.32 143.088 33.32C142.608 33.32 142.208 33.1867 141.888 32.92C141.621 32.6 141.408 32.2267 141.248 31.8C141.088 31.32 141.008 30.84 141.008 30.36C141.008 29.88 141.114 29.4267 141.328 29C142.021 27.56 143.248 26.84 145.008 26.84C146.448 26.84 147.808 27.1333 149.088 27.72C150.368 28.2533 151.461 28.9467 152.368 29.8C153.274 30.6533 153.888 31.6133 154.208 32.68C154.581 33.6933 154.528 34.7067 154.048 35.72C153.781 36.3067 153.114 36.8933 152.048 37.48C151.034 38.0667 150.021 38.68 149.008 39.32C149.434 39.7467 149.888 40.2 150.368 40.68C150.848 41.16 151.301 41.6667 151.728 42.2C152.154 42.7333 152.501 43.24 152.768 43.72C153.034 44.1467 153.168 44.52 153.168 44.84C153.061 45.7467 152.661 46.7067 151.968 47.72C152.874 47.6667 153.541 47.64 153.968 47.64C154.448 47.5867 154.714 47.56 154.768 47.56C155.088 47.56 155.247 47.64 155.247 47.8C155.194 48.2267 154.794 48.4933 154.048 48.6C153.301 48.7067 152.288 48.8667 151.008 49.08C148.074 51.5867 144.181 52.84 139.328 52.84C137.674 52.84 136.848 52.5467 136.848 51.96C136.848 51.5333 137.194 51.1067 137.888 50.68C138.634 50.2533 139.594 49.8533 140.768 49.48C141.941 49.0533 143.328 48.7067 144.928 48.44C146.528 48.12 148.208 47.88 149.968 47.72C150.074 47.5067 150.128 47.2933 150.128 47.08C150.128 46.7067 149.941 46.1467 149.568 45.4C149.248 44.6 148.714 43.8533 147.968 43.16C147.221 42.4133 146.261 41.8267 145.088 41.4C143.914 40.9733 142.501 40.8933 140.848 41.16C140.794 40.84 140.768 40.5733 140.768 40.36C140.768 39.8267 140.981 39.5067 141.408 39.4C142.528 39.1333 143.541 38.84 144.448 38.52C145.354 38.2 146.154 37.8533 146.848 37.48C147.594 37.1067 148.288 36.68 148.928 36.2ZM175.603 51.64C173.203 51.64 172.003 49.9067 172.003 46.44C172.003 44.2533 172.349 41.6133 173.043 38.52C171.603 40.92 169.443 43.5333 166.562 46.36C163.096 49.8267 160.349 51.56 158.323 51.56C157.309 51.56 156.803 50.8667 156.803 49.48C156.803 46.2267 158.323 42.12 161.363 37.16C164.616 31.72 167.763 29.1333 170.803 29.4C172.509 28.5467 173.843 28.12 174.803 28.12C175.123 28.12 176.216 28.2533 178.083 28.52C178.829 28.2 179.443 28.04 179.923 28.04C180.509 28.04 180.803 28.3067 180.803 28.84C180.803 29.32 180.509 30.2267 179.923 31.56C179.336 32.8933 178.883 33.6133 178.563 33.72C177.816 35.16 177.149 37.1867 176.562 39.8C176.029 42.36 175.763 44.4933 175.763 46.2C175.763 48.2267 176.349 49.24 177.523 49.24C178.643 49.24 180.003 48.52 181.603 47.08C183.203 45.64 183.976 44.92 183.923 44.92C184.029 44.92 184.083 44.9733 184.083 45.08C184.083 46.2533 182.749 47.8267 180.082 49.8C178.429 51.0267 176.936 51.64 175.603 51.64ZM175.763 30.36C175.283 30.1467 174.776 30.04 174.243 30.04C172.269 30.04 170.456 30.9467 168.803 32.76C167.363 34.3067 165.869 36.5467 164.323 39.48C162.776 42.36 161.656 44.9467 160.963 47.24C160.803 47.6667 160.723 48.0133 160.723 48.28C160.723 48.6533 160.856 48.84 161.123 48.84C161.496 48.84 162.109 48.52 162.963 47.88C165.789 45.8533 168.296 43.2133 170.483 39.96C171.603 38.2 173.363 35 175.763 30.36ZM194.909 33.96C195.176 33.16 195.363 32.52 195.469 32.04C195.576 31.56 195.603 31.16 195.549 30.84C195.496 30.52 195.336 30.2533 195.069 30.04C194.856 29.8267 194.563 29.6133 194.189 29.4C193.976 29.2933 193.416 29.4533 192.509 29.88C191.656 30.3067 190.669 30.9733 189.549 31.88C188.429 32.7867 187.283 33.9333 186.109 35.32C184.989 36.6533 184.029 38.2267 183.229 40.04L182.509 38.68C182.776 37.9333 183.309 36.9733 184.109 35.8C184.963 34.5733 185.976 33.4 187.149 32.28C188.376 31.1067 189.683 30.12 191.069 29.32C192.509 28.4667 193.949 28.04 195.389 28.04C196.296 28.04 197.123 28.1467 197.869 28.36C198.616 28.5733 199.176 28.8933 199.549 29.32C199.976 29.7467 200.189 30.3333 200.189 31.08C200.189 31.8267 199.896 32.7067 199.309 33.72C197.709 36.12 196.216 38.36 194.829 40.44C193.443 42.52 192.643 44.2533 192.429 45.64C192.323 46.44 192.456 47.1333 192.829 47.72C193.203 48.2533 193.816 48.52 194.669 48.52C195.149 48.52 195.923 48.28 196.989 47.8C198.056 47.2667 199.123 46.7067 200.189 46.12C201.309 45.48 202.269 44.8933 203.069 44.36C203.923 43.7733 204.349 43.4267 204.349 43.32C204.403 43.32 204.403 43.3733 204.349 43.48C204.243 44.2267 203.709 45.0267 202.749 45.88C201.789 46.7333 200.616 47.5333 199.229 48.28C197.843 48.9733 196.376 49.56 194.829 50.04C193.283 50.52 191.923 50.76 190.749 50.76C189.523 50.76 188.723 50.4667 188.349 49.88C187.976 49.24 187.869 48.44 188.029 47.48C188.189 46.4667 188.563 45.3467 189.149 44.12C189.736 42.8933 190.376 41.6667 191.069 40.44C191.816 39.16 192.536 37.96 193.229 36.84C193.923 35.72 194.483 34.76 194.909 33.96ZM219.473 26.44C222.726 26.44 224.353 27.8533 224.353 30.68C224.353 33.1867 223.1 36.4667 220.593 40.52C218.3 44.2533 216.033 47.0533 213.793 48.92C214.593 49.88 215.633 50.36 216.913 50.36C217.34 50.36 217.553 50.4667 217.553 50.68C217.553 51 217.286 51.16 216.753 51.16C215.42 51.16 214.22 50.5467 213.153 49.32C211.073 50.8667 208.86 51.64 206.513 51.64C204.006 51.64 202.753 50.52 202.753 48.28C202.753 46.04 203.66 43.1867 205.473 39.72C207.073 36.8933 208.806 34.3867 210.673 32.2V32.04C210.62 30.3333 211.686 28.92 213.873 27.8C215.686 26.8933 217.553 26.44 219.473 26.44ZM220.673 31.32C220.673 29.2933 219.98 28.28 218.593 28.28C217.313 28.28 216.273 29.0533 215.473 30.6C215.846 31.08 216.033 31.5333 216.033 31.96C216.033 32.1733 215.98 32.3067 215.873 32.36C214.326 33.2667 213.073 34.2 212.113 35.16C211.686 36.6 211.473 38.28 211.473 40.2C211.473 43.3467 212.006 45.9067 213.073 47.88C214.833 46.2267 216.54 43.64 218.193 40.12C219.846 36.6 220.673 33.6667 220.673 31.32ZM212.433 48.44C210.886 45.9867 210.086 42.7867 210.033 38.84C208.166 41.8267 207.233 44.28 207.233 46.2C207.233 48.4933 208.06 49.64 209.713 49.64C210.566 49.64 211.473 49.24 212.433 48.44ZM232.264 51.48C229.544 51.48 227.544 51.0267 226.264 50.12C221.677 59.5067 219.384 66.36 219.384 70.68C219.384 73.2933 220.024 74.6 221.304 74.6C222.37 74.6 223.704 73.88 225.304 72.44C226.957 71 227.757 70.28 227.704 70.28C227.757 70.28 227.784 70.3333 227.784 70.44C227.784 71.6133 226.477 73.1867 223.864 75.16C222.157 76.3867 220.637 77 219.304 77C216.957 77 215.784 75.2667 215.784 71.8C215.784 67.48 218.77 59.5867 224.744 48.12C224.637 47.7467 224.584 47.3467 224.584 46.92C224.584 44.8933 225.65 43.4267 227.784 42.52C230.237 38.2 233.117 33.6667 236.424 28.92C235.037 26.7867 233.784 25.3733 232.664 24.68C232.504 24.5733 232.424 24.44 232.424 24.28C232.424 23.9067 232.77 23.4267 233.464 22.84C234.157 22.2533 234.717 21.96 235.144 21.96C235.677 21.96 236.824 23.24 238.584 25.8C240.504 23.08 241.784 21.72 242.424 21.72C242.637 21.72 242.744 21.8533 242.744 22.12C242.744 22.2267 241.677 23.88 239.544 27.08C242.85 32.2 244.504 36.4667 244.504 39.88C244.504 42.7067 243.17 45.3467 240.504 47.8C237.837 50.2533 235.09 51.48 232.264 51.48ZM241.384 42.28C241.384 38.8667 240.05 34.92 237.384 30.44C235.197 33.8533 233.064 37.4533 230.984 41.24C231.357 41.0267 231.677 40.92 231.944 40.92C232.21 40.92 232.344 41.0267 232.344 41.24C232.344 41.72 231.517 42.3867 229.864 43.24C229.064 44.7333 228.29 46.2 227.544 47.64C228.45 49.1333 230.317 49.88 233.144 49.88C235.544 49.88 237.517 49.2133 239.064 47.88C240.61 46.4933 241.384 44.6267 241.384 42.28ZM262.286 26.44C265.539 26.44 267.166 27.8533 267.166 30.68C267.166 33.1867 265.912 36.4667 263.406 40.52C261.112 44.2533 258.846 47.0533 256.606 48.92C257.406 49.88 258.446 50.36 259.726 50.36C260.152 50.36 260.366 50.4667 260.366 50.68C260.366 51 260.099 51.16 259.566 51.16C258.232 51.16 257.032 50.5467 255.966 49.32C253.886 50.8667 251.672 51.64 249.326 51.64C246.819 51.64 245.566 50.52 245.566 48.28C245.566 46.04 246.472 43.1867 248.286 39.72C249.886 36.8933 251.619 34.3867 253.486 32.2V32.04C253.432 30.3333 254.499 28.92 256.686 27.8C258.499 26.8933 260.366 26.44 262.286 26.44ZM263.486 31.32C263.486 29.2933 262.792 28.28 261.406 28.28C260.126 28.28 259.086 29.0533 258.286 30.6C258.659 31.08 258.846 31.5333 258.846 31.96C258.846 32.1733 258.792 32.3067 258.686 32.36C257.139 33.2667 255.886 34.2 254.926 35.16C254.499 36.6 254.286 38.28 254.286 40.2C254.286 43.3467 254.819 45.9067 255.886 47.88C257.646 46.2267 259.352 43.64 261.006 40.12C262.659 36.6 263.486 33.6667 263.486 31.32ZM255.246 48.44C253.699 45.9867 252.899 42.7867 252.846 38.84C250.979 41.8267 250.046 44.28 250.046 46.2C250.046 48.4933 250.872 49.64 252.526 49.64C253.379 49.64 254.286 49.24 255.246 48.44ZM290.516 27.72L289.556 29.4C288.863 30.5733 287.636 33.2933 285.876 37.56C284.49 41.1867 282.356 46.6 279.476 53.8C280.01 53.7467 280.73 53.72 281.636 53.72C282.916 53.72 283.556 53.9867 283.556 54.52C283.556 54.7333 282.143 54.84 279.316 54.84H279.076C276.516 60.9733 273.29 66.0667 269.396 70.12C264.49 75.1867 259.183 77.72 253.476 77.72C250.97 77.72 248.756 77.1333 246.836 75.96C244.596 74.6267 243.476 72.76 243.476 70.36C243.476 65.6667 247.796 61.5333 256.436 57.96C261.77 55.72 268.41 54.36 276.356 53.88C277.423 51.2133 278.543 48.2267 279.716 44.92C280.25 43.5333 280.97 41.4 281.876 38.52C280.436 40.92 278.276 43.5333 275.396 46.36C271.93 49.8267 269.183 51.56 267.156 51.56C266.143 51.56 265.636 50.8667 265.636 49.48C265.636 46.2267 267.156 42.12 270.196 37.16C273.45 31.72 276.57 29.1333 279.556 29.4C281.316 28.5467 282.65 28.12 283.556 28.12C284.036 28.12 284.916 28.2 286.196 28.36L286.276 28.12C287.13 27.32 288.196 26.92 289.476 26.92C290.223 26.92 290.596 27.1333 290.596 27.56L290.516 27.72ZM284.596 30.36C284.116 30.1467 283.583 30.04 282.996 30.04C281.076 30.04 279.29 30.9467 277.636 32.76C276.196 34.3067 274.703 36.5467 273.156 39.48C271.61 42.36 270.49 44.9467 269.796 47.24C269.636 47.6667 269.556 48.0133 269.556 48.28C269.556 48.6533 269.69 48.84 269.956 48.84C270.33 48.84 270.943 48.52 271.796 47.88C274.623 45.8533 277.103 43.2133 279.236 39.96C280.41 38.2 282.196 35 284.596 30.36ZM275.876 54.92C268.41 55.3467 262.143 56.8667 257.076 59.48C250.143 63 246.676 66.76 246.676 70.76C246.676 72.4667 247.37 73.8 248.756 74.76C249.93 75.6133 251.396 76.04 253.156 76.04C257.796 76.04 262.383 73.5333 266.916 68.52C270.383 64.7867 273.37 60.2533 275.876 54.92ZM306.261 34.36C306.848 32.92 307.568 31.96 308.421 31.48C309.328 31 310.395 30.76 311.621 30.76C312.368 30.76 312.688 30.9467 312.581 31.32C312.581 31.48 312.395 31.7733 312.021 32.2C311.701 32.5733 311.328 32.9733 310.901 33.4L309.221 35.08C308.901 35.5067 308.528 36.2 308.101 37.16C307.675 38.0667 307.248 39.08 306.821 40.2C306.448 41.2667 306.101 42.3333 305.781 43.4C305.461 44.4667 305.248 45.3467 305.141 46.04C304.715 48.12 305.035 49.16 306.101 49.16C306.475 49.16 307.008 48.9733 307.701 48.6C308.448 48.2267 309.168 47.8 309.861 47.32C310.608 46.84 311.221 46.4133 311.701 46.04C312.075 45.7733 312.261 45.6133 312.261 45.56C312.208 45.8267 311.915 46.28 311.381 46.92C310.848 47.5067 310.181 48.12 309.381 48.76C308.581 49.4 307.701 49.9867 306.741 50.52C305.781 51 304.875 51.24 304.021 51.24C301.995 51.24 301.275 49.7467 301.861 46.76C301.915 46.28 302.101 45.5333 302.421 44.52C302.795 43.4533 303.168 42.3867 303.541 41.32C303.808 40.6267 304.048 39.96 304.261 39.32C304.048 39.32 303.808 39.3467 303.541 39.4C302.261 39.56 300.821 39.88 299.221 40.36C297.781 40.7867 296.341 41.2933 294.901 41.88L294.821 42.04C294.128 43.6933 293.461 45.24 292.821 46.68C292.181 48.12 291.675 49.24 291.301 50.04C291.195 50.2533 290.928 50.4933 290.501 50.76C290.128 50.9733 289.728 51.1867 289.301 51.4C288.875 51.6133 288.448 51.8 288.021 51.96C287.595 52.12 287.301 52.2 287.141 52.2C286.821 52.2 286.661 52.12 286.661 51.96V51.8C287.995 49.56 289.301 47.0267 290.581 44.2C290.635 44.0933 290.661 43.9867 290.661 43.88C291.995 40.9467 293.435 37.6933 294.981 34.12C294.981 34.0133 294.848 33.96 294.581 33.96C294.315 33.96 294.181 33.88 294.181 33.72C294.181 33.6667 295.141 32.04 297.061 28.84C297.275 28.52 297.755 28.2 298.501 27.88C299.248 27.56 299.835 27.4 300.261 27.4C300.795 27.4 301.061 27.64 301.061 28.12C301.061 28.0133 300.875 28.3867 300.501 29.24C300.128 30.04 299.648 31.1067 299.061 32.44C298.475 33.7733 297.808 35.2933 297.061 37C296.581 38.0133 296.128 39.0267 295.701 40.04C296.128 39.9333 296.581 39.8 297.061 39.64C298.555 39.16 299.968 38.7867 301.301 38.52C302.581 38.3067 303.728 38.1467 304.741 38.04C305.061 37.2933 305.248 36.8133 305.301 36.6L306.261 34.36ZM329.544 38.04C329.49 37.6667 329.33 37.4533 329.064 37.4C328.69 37.3467 328.104 37.5867 327.304 38.12C326.504 38.6533 325.65 39.3467 324.744 40.2C323.837 41 322.957 41.88 322.104 42.84C321.304 43.7467 320.717 44.5467 320.344 45.24C321.357 44.6533 322.61 44.0933 324.104 43.56C325.597 43.0267 327.197 42.5467 328.904 42.12C329.49 40.0933 329.704 38.7333 329.544 38.04ZM328.744 42.84C327.837 43.1067 326.824 43.48 325.704 43.96C324.637 44.3867 323.624 44.8933 322.664 45.48C321.704 46.0133 320.85 46.6 320.104 47.24C319.357 47.8267 318.877 48.3867 318.664 48.92C319.037 49.4533 319.517 49.8267 320.104 50.04C320.69 50.2533 321.25 50.4133 321.784 50.52C324.557 51 326.877 48.44 328.744 42.84ZM319.624 44.12C321.917 40.9733 324.05 38.68 326.024 37.24C327.997 35.8 329.597 35.1867 330.824 35.4C331.89 35.56 332.45 36.0933 332.504 37C332.824 38.2267 332.744 39.8267 332.264 41.8C332.69 41.64 333.037 41.56 333.304 41.56C333.57 41.5067 333.73 41.48 333.784 41.48C333.997 41.48 334.104 41.5333 334.104 41.64C334.157 41.9067 333.97 42.0667 333.544 42.12C333.117 42.1733 332.637 42.28 332.104 42.44C331.41 44.84 330.584 46.7333 329.624 48.12C328.717 49.5067 327.517 50.3867 326.024 50.76C325.17 50.92 324.53 51.0533 324.104 51.16C323.677 51.32 323.33 51.4533 323.064 51.56C322.85 51.6667 322.61 51.7467 322.344 51.8C322.13 51.8533 321.81 51.8533 321.384 51.8C320.797 51.6933 320.184 51.5333 319.544 51.32C318.904 51.1067 318.37 50.84 317.944 50.52C317.677 50.84 317.544 51 317.544 51C317.17 50.8933 316.85 50.6533 316.584 50.28C316.317 49.9067 316.13 49.56 316.024 49.24C315.49 47.48 315.704 44.9467 316.664 41.64C317.624 38.3333 319.57 34.0667 322.504 28.84C322.984 27.9333 324.077 27.48 325.784 27.48V27.64C325.89 27.5333 326.024 27.48 326.184 27.48C326.504 27.48 326.664 27.7467 326.664 28.28C326.664 28.5467 326.584 28.9467 326.424 29.48C326.264 29.96 326.05 30.4667 325.784 31C325.517 31.5333 325.224 32.04 324.904 32.52C324.584 32.9467 324.29 33.2133 324.024 33.32C322.424 35.4533 321.384 37.4267 320.904 39.24C320.477 41.0533 320.05 42.68 319.624 44.12ZM338.744 50.6C336.13 50.6 334.824 49.2667 334.824 46.6C334.824 44.7333 335.384 42.4933 336.504 39.88C337.09 38.4933 338.21 36.2267 339.864 33.08C340.184 32.3867 340.69 31.4 341.384 30.12C341.97 29.2133 343.064 28.76 344.664 28.76L344.584 28.84L344.664 28.92C344.77 28.8133 344.904 28.76 345.064 28.76C345.384 28.76 345.544 29.0267 345.544 29.56C345.544 30.2 345.224 31.16 344.584 32.44C343.997 33.6667 343.437 34.3867 342.904 34.6C341.89 36.52 340.877 38.4133 339.864 40.28C338.584 42.7333 337.944 44.7333 337.944 46.28C337.944 47.7733 338.744 48.52 340.344 48.52C341.517 48.52 343.197 47.72 345.384 46.12C347.57 44.4667 348.69 43.64 348.744 43.64C348.797 43.64 348.824 43.6667 348.824 43.72C348.824 43.9867 348.61 44.3867 348.184 44.92C347.064 46.36 345.65 47.6133 343.944 48.68C342.024 49.96 340.29 50.6 338.744 50.6ZM369.803 51.64C367.456 51.64 366.283 49.9067 366.283 46.44C366.283 45.9067 366.336 45.16 366.443 44.2C366.55 43.24 366.656 42.28 366.763 41.32C366.923 40.36 367.056 39.5067 367.163 38.76C367.323 37.96 367.403 37.4267 367.403 37.16C360.363 46.1733 355.536 50.68 352.923 50.68C350.95 50.68 349.963 49.64 349.963 47.56C349.963 45.7467 350.55 43.5867 351.723 41.08C351.83 40.92 352.123 40.36 352.603 39.4C353.136 38.3867 353.91 36.9467 354.923 35.08H354.763C354.443 35.08 354.283 34.9467 354.283 34.68C354.283 34.52 354.31 34.3867 354.363 34.28C355.216 32.68 355.91 31.48 356.443 30.68C356.976 29.8267 357.483 29.2133 357.963 28.84C358.443 28.4667 358.95 28.2533 359.483 28.2C360.07 28.1467 360.843 28.12 361.803 28.12C362.07 28.12 362.203 28.28 362.203 28.6C362.203 28.9733 360.79 31.4267 357.963 35.96C357.536 36.6 357.083 37.4533 356.603 38.52C356.123 39.5333 355.67 40.5733 355.243 41.64C354.87 42.6533 354.55 43.6133 354.283 44.52C354.016 45.4267 353.883 46.0933 353.883 46.52C353.883 47.2667 354.123 47.64 354.603 47.64C355.296 47.64 356.203 47.2133 357.323 46.36C358.443 45.5067 359.643 44.3867 360.923 43C362.256 41.56 363.59 39.96 364.923 38.2C366.256 36.44 367.483 34.68 368.603 32.92L368.843 32.04C369.27 30.44 369.936 29.3467 370.843 28.76C371.75 28.1733 372.923 27.88 374.363 27.88C375.216 27.88 375.643 28.0933 375.643 28.52C375.643 28.68 375.483 29 375.163 29.48C374.843 29.9067 374.47 30.3867 374.043 30.92C373.67 31.4 373.296 31.8533 372.923 32.28C372.603 32.6533 372.443 32.8667 372.443 32.92C372.176 33.4 371.883 34.2 371.563 35.32C371.296 36.3867 371.03 37.56 370.763 38.84C370.55 40.0667 370.363 41.32 370.203 42.6C370.043 43.8267 369.963 44.84 369.963 45.64C369.963 48.04 370.576 49.24 371.803 49.24C372.23 49.24 372.816 49.0267 373.563 48.6C374.363 48.12 375.11 47.6133 375.803 47.08C376.55 46.5467 377.163 46.0667 377.643 45.64C378.176 45.16 378.363 44.92 378.203 44.92C378.256 44.92 378.283 44.9733 378.283 45.08C378.283 45.4 378.016 45.9333 377.483 46.68C377.003 47.3733 376.363 48.0933 375.563 48.84C374.763 49.5867 373.856 50.2533 372.843 50.84C371.83 51.3733 370.816 51.64 369.803 51.64ZM379.803 14.2C379.536 14.68 378.976 15.24 378.123 15.88C377.27 16.4667 376.336 17.0267 375.323 17.56C374.31 18.0933 373.296 18.5467 372.283 18.92C371.323 19.24 370.55 19.4 369.963 19.4C366.283 19.4 364.443 18.2267 364.443 15.88C364.443 13.8 364.976 12.76 366.043 12.76C366.203 12.76 366.283 13.0267 366.283 13.56C366.283 14.04 366.336 14.5733 366.443 15.16C366.55 15.7467 366.843 16.3067 367.323 16.84C367.803 17.32 368.603 17.56 369.723 17.56C370.363 17.56 371.19 17.3733 372.203 17C373.216 16.6267 374.23 16.2267 375.243 15.8C376.256 15.32 377.163 14.8933 377.963 14.52C378.816 14.0933 379.323 13.88 379.483 13.88L379.803 14.2ZM396.877 38.28V38.52C402.797 32.9733 407.17 29.4533 409.997 27.96C410.424 27.7467 410.904 27.64 411.437 27.64C412.344 27.64 412.797 27.88 412.797 28.36C412.797 29.0533 411.597 30.0933 409.197 31.48C404.397 34.3067 400.424 37.1067 397.277 39.88C397.81 41.64 398.584 43.4267 399.597 45.24C401.037 47.7467 402.344 49 403.517 49C404.584 49 405.624 48.0933 406.637 46.28C407.704 44.4133 408.264 43.48 408.317 43.48C408.477 43.48 408.557 43.6667 408.557 44.04C408.557 44.3067 408.504 44.5467 408.397 44.76C407.65 46.8933 407.037 48.3333 406.557 49.08C405.544 50.5733 404.237 51.32 402.637 51.32C400.93 51.32 399.304 50.12 397.757 47.72C396.477 45.7467 395.677 43.7467 395.357 41.72C393.97 43.32 392.69 45.08 391.517 47C391.57 47.16 391.597 47.32 391.597 47.48C391.597 48.5467 391.064 49.6133 389.997 50.68C388.93 51.6933 387.837 52.2 386.717 52.2C386.344 52.2 386.184 52.0667 386.237 51.8C386.61 51.2667 387.144 50.44 387.837 49.32C389.064 46.8133 390.957 43.1067 393.517 38.2C393.197 36.8133 393.037 35.9867 393.037 35.72C393.037 34.8133 393.864 34.12 395.517 33.64C399.784 23.9333 403.89 16.0133 407.837 9.88003C407.677 9.5067 407.597 9.13336 407.597 8.76003C407.597 8.5467 407.65 8.33336 407.757 8.12003C409.037 5.93336 410.024 4.41336 410.717 3.56003C411.304 2.92003 412.45 2.60003 414.157 2.60003C415.544 2.60003 416.237 2.86669 416.237 3.40003C416.237 3.3467 415.064 5.05336 412.717 8.52003C408.824 14.3867 404.904 21 400.957 28.36C398.184 33.5333 396.824 36.84 396.877 38.28ZM425.586 45.08C425.586 46.2 425.719 47.1867 425.986 48.04C426.252 48.8933 426.759 49.32 427.506 49.32C428.679 49.32 430.199 48.52 432.066 46.92C432.546 46.4933 432.946 46.1467 433.266 45.88C433.639 45.56 433.959 45.2933 434.226 45.08C434.492 44.8667 434.732 44.6533 434.946 44.44C435.052 44.44 435.106 44.4933 435.106 44.6C435.159 44.8133 435.026 45.1867 434.706 45.72C433.799 47.16 432.599 48.44 431.106 49.56C429.452 50.7867 427.852 51.4 426.306 51.4C425.506 51.4 424.759 51.2133 424.066 50.84C423.426 50.4667 422.892 49.9333 422.466 49.24C422.039 48.4933 421.772 47.5867 421.666 46.52C421.559 45.4533 421.692 44.2267 422.066 42.84C422.332 41.72 422.626 40.6267 422.946 39.56C423.266 38.44 423.639 37.3733 424.066 36.36C423.212 37.5333 422.306 38.8133 421.346 40.2C420.439 41.5867 419.479 42.9467 418.466 44.28C417.506 45.56 416.492 46.76 415.426 47.88C414.412 49 413.372 49.8533 412.306 50.44C411.292 51.0267 410.252 51.2933 409.186 51.24C408.172 51.1867 407.159 50.6533 406.146 49.64C405.719 49.2133 405.506 48.68 405.506 48.04C405.506 47.4 405.666 46.8133 405.986 46.28C406.252 45.6933 406.652 45.2667 407.186 45C407.719 44.68 408.306 44.68 408.946 45C409.319 47.0267 409.959 48.1467 410.866 48.36C411.826 48.52 412.866 48.1733 413.986 47.32C415.159 46.4667 416.359 45.24 417.586 43.64C418.866 42.04 420.039 40.44 421.106 38.84C422.226 37.24 423.186 35.8 423.986 34.52C424.786 33.24 425.292 32.4933 425.506 32.28C426.146 31.2133 426.732 30.36 427.266 29.72C427.852 29.08 428.759 28.76 429.986 28.76C430.252 28.8667 430.386 28.92 430.386 28.92C430.226 28.92 429.906 29.48 429.426 30.6C428.999 31.6667 428.519 33.0267 427.986 34.68C427.506 36.28 427.026 38.0133 426.546 39.88C426.119 41.7467 425.799 43.48 425.586 45.08ZM450.448 53.8H450.928C452.901 53.7467 453.888 53.9333 453.888 54.36C453.888 54.68 452.608 54.84 450.048 54.84C447.488 60.9733 444.261 66.0667 440.368 70.12C435.461 75.1867 430.154 77.72 424.447 77.72C421.941 77.72 419.727 77.1333 417.807 75.96C415.567 74.6267 414.447 72.76 414.447 70.36C414.447 65.6667 418.767 61.5333 427.407 57.96C432.741 55.72 439.381 54.36 447.328 53.88C448.821 50.0933 449.781 47.64 450.208 46.52C451.221 43.7467 451.994 41.2133 452.528 38.92L452.848 37.4C449.381 41.8267 447.114 44.6 446.048 45.72C442.581 49.56 439.888 51.48 437.968 51.48C436.421 51.48 435.648 50.3333 435.648 48.04C435.648 45.7467 437.008 42.04 439.728 36.92L439.488 37C439.168 37 439.008 36.84 439.008 36.52C439.008 36.4133 439.061 36.28 439.168 36.12C440.714 33.4 441.568 31.9333 441.728 31.72C442.741 30.6 444.341 30.04 446.528 30.04C446.848 30.04 447.008 30.1733 447.008 30.44C447.008 30.92 445.594 33.4 442.768 37.88C442.021 39.0533 441.248 40.6 440.448 42.52C439.541 44.7067 439.088 46.28 439.088 47.24C439.088 47.9867 439.354 48.36 439.888 48.36C441.434 48.36 444.021 46.2533 447.648 42.04C450.688 38.4667 452.821 35.5067 454.048 33.16C454.314 32.36 454.608 31.56 454.928 30.76C455.248 29.9067 455.754 29.24 456.448 28.76C457.514 28.0667 458.474 27.72 459.328 27.72C459.861 27.72 460.128 27.9867 460.128 28.52C460.128 29.1067 459.888 29.8533 459.408 30.76C458.928 31.4533 458.474 32.1733 458.048 32.92C457.674 33.6133 456.874 35.8533 455.648 39.64C454.581 42.84 452.848 47.56 450.448 53.8ZM446.848 54.92C439.381 55.3467 433.141 56.8667 428.127 59.48C421.141 63 417.647 66.76 417.647 70.76C417.647 72.4667 418.341 73.8 419.727 74.76C420.901 75.6133 422.367 76.04 424.128 76.04C428.767 76.04 433.381 73.5333 437.968 68.52C441.381 64.7867 444.341 60.2533 446.848 54.92ZM477.02 30.6C476.433 30.28 475.793 30.12 475.1 30.12C474.087 30.12 472.993 30.52 471.82 31.32C470.647 32.0667 469.473 33.1867 468.3 34.68C467.127 36.1733 465.98 37.9867 464.86 40.12C463.793 42.2 462.86 44.5733 462.06 47.24C461.953 47.7733 461.9 48.12 461.9 48.28C461.9 48.6533 462.033 48.84 462.3 48.84C462.567 48.84 463.153 48.52 464.06 47.88C469.127 44.2533 473.447 38.4933 477.02 30.6ZM489.1 7.08003C491.18 6.60003 493.073 6.28003 494.78 6.12003C496.54 5.9067 498.673 5.80003 501.18 5.80003C503.367 5.80003 504.46 6.25336 504.46 7.16003C504.46 7.42669 504.247 7.88003 503.82 8.52003C503.393 9.10669 502.913 9.74669 502.38 10.44C501.847 11.1333 501.313 11.7467 500.78 12.28C500.3 12.76 499.953 13 499.74 13C499.527 13 499.42 12.8667 499.42 12.6C499.42 12.4933 499.553 12.3067 499.82 12.04C500.087 11.7733 500.353 11.48 500.62 11.16C500.94 10.84 501.233 10.5467 501.5 10.28C501.767 10.0133 501.9 9.80003 501.9 9.64003C501.9 9.05336 500.86 8.76003 498.78 8.76003C497.82 8.76003 496.887 8.81336 495.98 8.92003C495.073 8.97336 494.06 9.08003 492.94 9.24003C491.82 9.40003 490.513 9.61336 489.02 9.88003C487.58 10.0933 485.873 10.3867 483.9 10.76C482.033 11.3467 480.78 12.0133 480.14 12.76C479.5 13.4533 479.153 14.3067 479.1 15.32C479.047 16.28 479.153 17.4267 479.42 18.76C479.74 20.04 479.873 21.5867 479.82 23.4C479.82 25.16 479.5 27.2133 478.86 29.56C478.273 31.8533 477.073 34.4933 475.26 37.48C474.513 38.92 473.447 40.4667 472.06 42.12C470.673 43.7733 469.207 45.2933 467.66 46.68C466.113 48.0667 464.593 49.24 463.1 50.2C461.66 51.1067 460.513 51.56 459.66 51.56C458.54 51.56 457.98 50.8667 457.98 49.48C457.98 47.88 458.407 45.96 459.26 43.72C460.167 41.4267 461.287 39.2133 462.62 37.08C463.953 34.9467 465.42 33.1333 467.02 31.64C468.62 30.1467 470.113 29.4 471.5 29.4H471.9C473.553 28.5467 474.86 28.12 475.82 28.12H475.74C475.74 28.1733 475.82 28.1467 475.98 28.04C476.193 27.9333 476.887 27.9333 478.06 28.04C478.487 26.9733 478.7 25.96 478.7 25C478.753 24.04 478.647 23.1067 478.38 22.2C477.687 19.64 477.447 17.5333 477.66 15.88C477.927 14.1733 478.407 12.7867 479.1 11.72C479.847 10.6 480.753 9.77336 481.82 9.24003C482.887 8.7067 483.927 8.3067 484.94 8.04003C485.953 7.72003 486.86 7.53336 487.66 7.48003C488.46 7.37336 488.94 7.24003 489.1 7.08003Z" fill="white"/>
</svg>
