<svg width="22" height="18" viewBox="0 0 22 18" fill="none" xmlns="http://www.w3.org/2000/svg">
  <path d="M19.5348 6.47291H16.2251C16.7374 5.16046 16.9448 3.61565 16.9048 2.24051C16.8972 1.97809 16.8872 1.82633 16.8735 1.73079C16.8506 0.772847 16.064 0 15.1013 0C14.1234 0 13.3279 0.795547 13.3279 1.7734V2.21675C13.3279 5.02076 9.72723 6.5962 7.00994 7.27178C6.8045 6.80209 6.33552 6.47291 5.79091 6.47291H1.35741C1.11259 6.47291 0.914062 6.67144 0.914062 6.91626V17.5567C0.914062 17.8015 1.11259 18 1.35741 18H5.79091C6.33188 18 6.79816 17.6752 7.00573 17.2104C7.23073 17.2682 7.43959 17.3227 7.63241 17.3731C9.18036 17.7773 10.0331 18 12.1069 18H16.8747C17.8525 18 18.6481 17.2045 18.6481 16.2266C18.6481 15.862 18.5373 15.5228 18.3479 15.2407C19.0328 15.0011 19.5348 14.3468 19.5348 13.5665C19.5348 13.2032 19.4268 12.863 19.2379 12.5795C19.9198 12.3396 20.4215 11.6867 20.4215 10.9064C20.4215 10.5418 20.3107 10.2026 20.1213 9.92048C20.8062 9.68094 21.3082 9.02656 21.3082 8.24631C21.3082 7.26845 20.5126 6.47291 19.5348 6.47291ZM6.23426 16.67C6.23426 16.9144 6.03537 17.1133 5.79091 17.1133H1.80076V7.35961H5.79091C6.03537 7.35961 6.23426 7.55849 6.23426 7.80296V16.67ZM19.5348 9.13301C18.5838 9.13301 18.3571 9.13301 17.318 9.13301C17.0732 9.13301 16.8747 9.33154 16.8747 9.57635C16.8747 9.82117 17.0732 10.0197 17.318 10.0197H18.6481C19.137 10.0197 19.5348 10.4175 19.5348 10.9064C19.5348 11.3961 19.1378 11.7931 18.6481 11.7931H16.4313C16.1865 11.7931 15.988 11.9916 15.988 12.2365C15.988 12.4813 16.1865 12.6798 16.4313 12.6798H17.7614C18.2445 12.6798 18.6481 13.0657 18.6481 13.5665C18.6481 14.0562 18.2511 14.4532 17.7614 14.4532C16.8104 14.4532 16.5837 14.4532 15.5446 14.4532C15.2998 14.4532 15.1013 14.6517 15.1013 14.8966C15.1013 15.1414 15.2998 15.3399 15.5446 15.3399H16.8747C17.3636 15.3399 17.7614 15.7377 17.7614 16.2266C17.7614 16.7155 17.3636 17.1133 16.8747 17.1133H12.1069C10.147 17.1133 9.38147 16.9134 7.85648 16.5151C7.63307 16.4568 7.38803 16.3928 7.12096 16.3247V8.15874C10.3294 7.3945 14.2146 5.52906 14.2146 2.21675V1.7734C14.2146 1.28447 14.6123 0.886699 15.1013 0.886699C15.5893 0.886699 15.987 1.28385 15.988 1.77202V1.7734C15.988 1.96608 16.2284 4.33077 15.2641 6.47291H13.7712C13.5264 6.47291 13.3279 6.67144 13.3279 6.91626C13.3279 7.16107 13.5264 7.35961 13.7712 7.35961C14.0808 7.35961 19.0294 7.35961 19.5348 7.35961C20.0237 7.35961 20.4215 7.75738 20.4215 8.24631C20.4215 8.73603 20.0245 9.13301 19.5348 9.13301Z" fill="black"/>
</svg>
