<svg width="20" height="21" viewBox="0 0 20 21" fill="none" xmlns="http://www.w3.org/2000/svg">
  <path fill-rule="evenodd" clip-rule="evenodd" d="M11.9276 10.0033L19.5985 2.33313C20.1355 1.79619 20.1322 0.935953 19.5985 0.401474C19.064 -0.13546 18.2038 -0.128913 17.6701 0.401474L9.99999 8.07161L2.32985 0.401474C1.79292 -0.13546 0.932679 -0.132186 0.401474 0.401474C-0.13546 0.939227 -0.132186 1.79865 0.401474 2.33313L8.07243 10.0033L0.401474 17.6701C-0.13546 18.2071 -0.132186 19.0673 0.401474 19.601C0.935953 20.1387 1.79619 20.1355 2.32985 19.601L9.99999 11.9308L17.6701 19.601C18.2071 20.1387 19.0673 20.1355 19.5985 19.601C20.1355 19.0641 20.1322 18.2038 19.5985 17.6701L11.9276 10.0033Z" fill="white"/>
</svg>
