<svg width="80" height="45" viewBox="0 0 80 45" fill="none" xmlns="http://www.w3.org/2000/svg">
  <path fill-rule="evenodd" clip-rule="evenodd" d="M0 32.7423V23.2402H1.06601L4.89398 29.0389L8.72194 23.2402H9.78795V32.7423H8.62502V25.3356L4.89398 30.9394L1.16293 25.3356V32.7423H0Z" fill="white"/>
  <path fill-rule="evenodd" clip-rule="evenodd" d="M15.5556 29.0389H19.7228L17.6392 24.8483L15.5556 29.0389ZM12.5029 32.7423L17.1062 23.2402H18.0753L22.727 32.7423H21.4671L20.2073 30.2084H15.0226L13.7628 32.7423H12.5029Z" fill="white"/>
  <path fill-rule="evenodd" clip-rule="evenodd" d="M26.7015 27.4796H30.8686C31.4501 27.4796 31.8862 27.3334 32.2254 27.0898C32.5161 26.8462 32.6615 26.4563 32.6615 25.9203C32.6615 25.433 32.5161 25.0432 32.2254 24.7508C31.9347 24.4585 31.4986 24.3123 30.9171 24.3123H26.7015V27.4796ZM25.5386 32.7423V23.2402H30.9656C31.8862 23.2402 32.613 23.4839 33.146 23.9224C33.679 24.361 33.9213 24.9945 33.9213 25.8229C33.9213 26.6512 33.679 27.3334 33.146 27.8207C32.6615 28.308 31.9831 28.6004 31.1109 28.6004H26.7015V32.7423H25.5386Z" fill="white"/>
  <path fill-rule="evenodd" clip-rule="evenodd" d="M38.861 32.7423V24.3123H34.8877V23.2402H44.0457V24.3123H40.0724V32.7423H38.861Z" fill="white"/>
  <path fill-rule="evenodd" clip-rule="evenodd" d="M50.056 31.8648C51.122 31.8648 51.9942 31.5237 52.6726 30.7928C53.3509 30.0618 53.6901 29.136 53.6901 28.0152C53.6901 26.8945 53.3509 25.9686 52.6726 25.2377C51.9942 24.5068 51.122 24.1657 50.056 24.1657C48.99 24.1657 48.1178 24.5555 47.4394 25.2864C46.761 26.0174 46.4218 26.9432 46.4218 28.064C46.4218 29.1847 46.761 30.1106 47.4394 30.8415C48.1178 31.475 48.99 31.8648 50.056 31.8648ZM50.056 32.9856C48.6508 32.9856 47.4878 32.4983 46.5672 31.5724C45.6465 30.6466 45.2104 29.4284 45.2104 28.0152C45.2104 26.5534 45.695 25.3839 46.6157 24.458C47.5363 23.5322 48.6992 23.0449 50.1044 23.0449C51.5096 23.0449 52.6726 23.5322 53.5932 24.458C54.5139 25.3839 54.9984 26.6021 54.9984 28.0152C54.9984 29.4771 54.5139 30.6466 53.5932 31.5724C52.6241 32.4983 51.4612 32.9856 50.056 32.9856Z" fill="white"/>
  <path fill-rule="evenodd" clip-rule="evenodd" d="M59.5526 26.9923H64.0589C64.5435 26.9923 64.9311 26.8949 65.1734 26.6512C65.4157 26.4076 65.561 26.1152 65.561 25.6767C65.561 25.2381 65.4157 24.897 65.1734 24.6534C64.9311 24.4097 64.5435 24.3123 64.0105 24.3123H59.5041V26.9923H59.5526ZM59.5526 31.6216H64.495C65.028 31.6216 65.4641 31.4754 65.7548 31.1343C66.0456 30.7932 66.2394 30.4033 66.2394 29.8186C66.2394 29.2826 66.094 28.844 65.7548 28.5029C65.4641 28.1618 65.028 28.0156 64.495 28.0156H59.5526V31.6216ZM58.3896 32.7423V23.2402H63.962C64.8826 23.2402 65.6095 23.4352 66.0456 23.825C66.5301 24.2148 66.7724 24.7996 66.7724 25.5792C66.7724 25.969 66.6755 26.3101 66.5301 26.6025C66.3848 26.8949 66.1909 27.1385 65.9002 27.3334C66.3848 27.6258 66.7724 27.9669 67.0147 28.4055C67.257 28.844 67.4023 29.3313 67.4023 29.8673C67.4023 30.7444 67.1116 31.4267 66.5301 31.9627C65.9487 32.4987 65.1734 32.7423 64.2043 32.7423H58.3896Z" fill="white"/>
  <path fill-rule="evenodd" clip-rule="evenodd" d="M72.829 29.0389H76.9962L74.9126 24.8483L72.829 29.0389ZM69.7764 32.7423L74.3796 23.2402H75.3487L80.0004 32.7423H78.7406L77.4807 30.2084H72.2476L70.9877 32.7423H69.7764Z" fill="white"/>
  <path fill-rule="evenodd" clip-rule="evenodd" d="M27.3311 1.46021V4.38393C27.6218 4.3352 28.3002 3.94537 28.6393 3.79919C30.1415 3.16571 31.7889 2.77588 33.4849 2.77588C38.2335 2.72715 41.1408 5.84579 46.2286 5.94325C47.8761 5.94325 49.7658 5.60215 51.2679 5.06613C51.7525 4.87122 52.2855 4.62757 52.6731 4.48139V1.55767C51.8009 1.85004 51.4133 2.23987 49.8627 2.67843C45.8894 3.84791 43.4666 2.92207 40.0263 1.55767C36.6829 0.241992 33.9694 -0.537664 30.1899 0.436909C29.3662 0.631824 27.961 1.07038 27.3311 1.46021Z" fill="white"/>
  <path fill-rule="evenodd" clip-rule="evenodd" d="M27.3311 9.54898V12.3752C28.0094 12.2291 29.8023 10.8159 33.5818 10.7672C36.0045 10.7185 38.0397 11.5956 39.9294 12.3752C43.4182 13.7884 46.0348 14.4218 49.8143 13.496C50.4927 13.3498 52.237 12.7651 52.7216 12.424V9.50025C50.6865 10.4261 49.1359 11.1083 46.4224 11.157C43.9027 11.157 42.0614 10.3286 40.0748 9.54898C36.6345 8.23331 34.0179 7.40492 30.1415 8.42822C29.6085 8.52568 27.4764 9.20788 27.3311 9.54898Z" fill="white"/>
  <path fill-rule="evenodd" clip-rule="evenodd" d="M0.675781 43.2222H1.11188V41.6629H2.75936C3.43773 41.6629 3.82537 41.2244 3.82537 40.6396C3.82537 40.0549 3.38927 39.665 2.7109 39.665H0.675781V43.2222ZM1.11188 41.2244V40.0549H2.7109C3.147 40.0549 3.38927 40.2985 3.38927 40.6396C3.38927 41.0294 3.147 41.2244 2.7109 41.2244H1.11188Z" fill="white"/>
  <path fill-rule="evenodd" clip-rule="evenodd" d="M12.9856 43.2222V39.665H12.6948L10.4659 42.4426V39.665H10.0298V43.2222H10.3205L12.5495 40.4447V43.2222H12.9856Z" fill="white"/>
  <path fill-rule="evenodd" clip-rule="evenodd" d="M19.5786 43.2222H21.8076C22.5344 43.2222 23.0189 42.7837 23.0189 42.1502C23.0189 41.7604 22.8251 41.4193 22.4375 41.1756C22.6313 41.0294 22.7767 40.7858 22.7767 40.5422C22.7767 39.9574 22.4375 39.665 21.7106 39.665H19.6271V43.2222H19.5786ZM20.0147 42.8324V41.5167H21.856C22.2921 41.5167 22.4859 41.8091 22.4859 42.1989C22.4859 42.5888 22.2437 42.8811 21.856 42.8811H20.0147V42.8324ZM20.0147 41.0782V40.1036H21.7106C22.0983 40.1036 22.2921 40.2498 22.2921 40.5909C22.2921 40.8833 22.0983 41.0782 21.7106 41.0782H20.0147Z" fill="white"/>
  <path fill-rule="evenodd" clip-rule="evenodd" d="M29.3647 43.2222H32.2721V42.8324H29.8008V41.5167H31.206V41.1269H29.8008V40.0549H32.1267V39.665H29.3647V43.2222Z" fill="white"/>
  <path fill-rule="evenodd" clip-rule="evenodd" d="M38.4229 43.2222H38.8589V41.6629H40.5064C41.1848 41.6629 41.5724 41.2244 41.5724 40.6396C41.5724 40.0549 41.1363 39.665 40.458 39.665H38.4229V43.2222ZM38.8589 41.2244V40.0549H40.458C40.8941 40.0549 41.1363 40.2985 41.1363 40.6396C41.1363 41.0294 40.8941 41.2244 40.458 41.2244H38.8589Z" fill="white"/>
  <path fill-rule="evenodd" clip-rule="evenodd" d="M50.4913 42.1004C50.2005 42.6364 49.7644 42.9288 49.2314 42.9288C48.4561 42.9288 47.8747 42.344 47.8747 41.4669C47.8747 40.6385 48.4561 40.0051 49.2314 40.0051C49.7644 40.0051 50.2005 40.2487 50.3944 40.6873L50.782 40.4436C50.4428 39.9076 49.9098 39.6152 49.2314 39.6152C48.1654 39.6152 47.3901 40.3949 47.3901 41.4669C47.3901 42.539 48.1654 43.3186 49.2314 43.3186C49.9583 43.3186 50.5397 42.9775 50.8789 42.344L50.4913 42.1004Z" fill="white"/>
  <path fill-rule="evenodd" clip-rule="evenodd" d="M56.5962 43.2222H57.0807L57.5653 42.2477H59.5035L59.9881 43.2222H60.4726L58.7282 39.665H58.3406L56.5962 43.2222ZM57.7591 41.8578L58.5344 40.2985L59.3097 41.8578H57.7591Z" fill="white"/>
  <path fill-rule="evenodd" clip-rule="evenodd" d="M69.4852 43.2193V39.6621H69.1945L66.9655 42.4396V39.6621H66.481V43.2193H66.7717L69.0006 40.4417V43.2193H69.4852ZM68.613 38.6875C68.613 38.785 68.5645 38.9799 68.4192 39.0773C68.3223 39.1261 68.08 39.1261 67.9831 39.1261C67.8862 39.1261 67.6923 39.1261 67.5954 39.0773C67.4016 38.9799 67.4016 38.785 67.4016 38.6875H67.0624C67.0624 38.8824 67.1109 39.1261 67.2562 39.2723C67.4501 39.4672 67.7893 39.4672 67.9831 39.4672C68.1769 39.4672 68.4676 39.4672 68.7099 39.2723C68.8553 39.1261 68.9037 38.8337 68.9037 38.6875H68.613Z" fill="white"/>
  <path fill-rule="evenodd" clip-rule="evenodd" d="M78.9828 43.2211V44.0008H79.3704V42.7826H78.8859L77.4807 39.6152H77.1415L75.7847 42.7826H75.3486V44.0008H75.7363V43.2211H78.9828ZM76.2693 42.8313L77.3353 40.2974L78.4498 42.8313H76.2693Z" fill="white"/>
  <path fill-rule="evenodd" clip-rule="evenodd" d="M0.675781 43.2222H1.11188V41.6629H2.75935C3.43773 41.6629 3.82537 41.2244 3.82537 40.6396C3.82537 40.0549 3.38927 39.665 2.7109 39.665H0.675781V43.2222ZM1.11188 41.2244V40.0549H2.7109C3.147 40.0549 3.38927 40.2985 3.38927 40.6396C3.38927 41.0294 3.147 41.2244 2.7109 41.2244H1.11188V41.2244Z" stroke="white" stroke-width="0.216" stroke-miterlimit="22.9256"/>
  <path fill-rule="evenodd" clip-rule="evenodd" d="M12.9856 43.2222V39.665H12.6948L10.4659 42.4426V39.665H10.0298V43.2222H10.3205L12.5495 40.4447V43.2222H12.9856Z" stroke="white" stroke-width="0.216" stroke-miterlimit="22.9256"/>
  <path fill-rule="evenodd" clip-rule="evenodd" d="M19.5786 43.2222H21.8076C22.5344 43.2222 23.0189 42.7837 23.0189 42.1502C23.0189 41.7604 22.8251 41.4193 22.4375 41.1756C22.6313 41.0294 22.7767 40.7858 22.7767 40.5422C22.7767 39.9574 22.4375 39.665 21.7106 39.665H19.6271V43.2222H19.5786ZM20.0147 42.8324V41.5167H21.856C22.2921 41.5167 22.4859 41.8091 22.4859 42.1989C22.4859 42.5888 22.2437 42.8811 21.856 42.8811H20.0147V42.8324ZM20.0147 41.0782V40.1036H21.7106C22.0983 40.1036 22.2921 40.2498 22.2921 40.5909C22.2921 40.8833 22.0983 41.0782 21.7106 41.0782H20.0147Z" stroke="white" stroke-width="0.216" stroke-miterlimit="22.9256"/>
  <path fill-rule="evenodd" clip-rule="evenodd" d="M29.3647 43.2222H32.2721V42.8324H29.8008V41.5167H31.206V41.1269H29.8008V40.0549H32.1267V39.665H29.3647V43.2222Z" stroke="white" stroke-width="0.216" stroke-miterlimit="22.9256"/>
  <path fill-rule="evenodd" clip-rule="evenodd" d="M38.4229 43.2222H38.8589V41.6629H40.5064C41.1848 41.6629 41.5724 41.2244 41.5724 40.6396C41.5724 40.0549 41.1363 39.665 40.458 39.665H38.4229V43.2222V43.2222ZM38.8589 41.2244V40.0549H40.458C40.8941 40.0549 41.1363 40.2985 41.1363 40.6396C41.1363 41.0294 40.8941 41.2244 40.458 41.2244H38.8589V41.2244Z" stroke="white" stroke-width="0.216" stroke-miterlimit="22.9256"/>
  <path fill-rule="evenodd" clip-rule="evenodd" d="M50.4913 42.1004C50.2005 42.6364 49.7644 42.9288 49.2314 42.9288C48.4561 42.9288 47.8747 42.344 47.8747 41.4669C47.8747 40.6385 48.4561 40.0051 49.2314 40.0051C49.7644 40.0051 50.2005 40.2487 50.3944 40.6873L50.782 40.4436C50.4428 39.9076 49.9098 39.6152 49.2314 39.6152C48.1654 39.6152 47.3901 40.3949 47.3901 41.4669C47.3901 42.539 48.1654 43.3186 49.2314 43.3186C49.9583 43.3186 50.5397 42.9775 50.8789 42.344L50.4913 42.1004Z" stroke="white" stroke-width="0.216" stroke-miterlimit="22.9256"/>
  <path fill-rule="evenodd" clip-rule="evenodd" d="M56.5962 43.2222H57.0807L57.5653 42.2477H59.5035L59.9881 43.2222H60.4726L58.7282 39.665H58.3406L56.5962 43.2222ZM57.7591 41.8578L58.5344 40.2985L59.3097 41.8578H57.7591Z" stroke="white" stroke-width="0.216" stroke-miterlimit="22.9256"/>
  <path fill-rule="evenodd" clip-rule="evenodd" d="M69.4852 43.2193V39.6621H69.1945L66.9655 42.4396V39.6621H66.481V43.2193H66.7717L69.0006 40.4417V43.2193H69.4852ZM68.613 38.6875C68.613 38.785 68.5645 38.9799 68.4192 39.0773C68.3223 39.1261 68.08 39.1261 67.9831 39.1261C67.8862 39.1261 67.6923 39.1261 67.5954 39.0773C67.4016 38.9799 67.4016 38.785 67.4016 38.6875H67.0624C67.0624 38.8824 67.1109 39.1261 67.2562 39.2723C67.4501 39.4672 67.7893 39.4672 67.9831 39.4672C68.1769 39.4672 68.4676 39.4672 68.7099 39.2723C68.8553 39.1261 68.9037 38.8337 68.9037 38.6875H68.613Z" stroke="white" stroke-width="0.216" stroke-miterlimit="22.9256"/>
  <path fill-rule="evenodd" clip-rule="evenodd" d="M78.9828 43.2212V44.0008H79.3704V42.7826H78.8859L77.4807 39.6152H77.1415L75.7847 42.7826H75.3486V44.0008H75.7363V43.2212H78.9828ZM76.2693 42.8313L77.3353 40.2974L78.4498 42.8313H76.2693Z" stroke="white" stroke-width="0.216" stroke-miterlimit="22.9256"/>
</svg>
