<svg width="21" height="20" viewBox="0 0 21 20" fill="none" xmlns="http://www.w3.org/2000/svg">
  <path d="M10.0247 1.56287C9.80784 1.56287 9.63354 1.73708 9.63354 1.9531C9.63354 2.15415 9.78513 2.32146 9.9855 2.3413C10.2175 2.36427 10.4158 2.184 10.4158 1.9531C10.4158 1.73677 10.2412 1.56287 10.0247 1.56287Z" fill="black"/>
  <path d="M17.8543 2.34375C16.7749 2.34375 15.8968 1.46758 15.8968 0.390625C15.8968 0.174922 15.7215 0 15.5053 0H4.54344C4.32726 0 4.15195 0.174922 4.15195 0.390625C4.15195 1.46758 3.27383 2.34375 2.19447 2.34375C1.97829 2.34375 1.80298 2.51867 1.80298 2.73438V9.10898C1.80298 14.0768 5.04828 18.5283 9.91194 19.9836C9.94862 19.9945 9.98648 20 10.0244 20C10.0623 20 10.1002 19.9945 10.1369 19.9835C14.8952 18.5593 18.2458 14.1855 18.2458 9.10898V2.73438C18.2458 2.51867 18.0705 2.34375 17.8543 2.34375ZM17.4628 9.10898C17.4628 13.7749 14.4788 17.8157 10.0244 19.2009C5.60549 17.8268 2.58597 13.7494 2.58597 9.10898V3.09719C3.78437 2.92539 4.73488 1.97699 4.90706 0.78125H15.1417C15.3139 1.97699 16.2644 2.92539 17.4628 3.09719V9.10898Z" fill="black"/>
  <path d="M16.4455 3.61289C15.6291 3.25613 14.9826 2.61102 14.625 1.79641C14.5626 1.6543 14.4219 1.5625 14.2664 1.5625H11.5898C11.3736 1.5625 11.1983 1.73742 11.1983 1.95312C11.1983 2.16883 11.3736 2.34375 11.5898 2.34375H14.0189C14.4325 3.1516 15.0873 3.80496 15.897 4.2177V9.10898C15.897 12.9318 13.597 16.2302 10.0246 17.5505C6.45212 16.2302 4.15213 12.9318 4.15213 9.10898V4.2177C4.96178 3.80496 5.6166 3.1516 6.03025 2.34375H8.45936C8.67554 2.34375 8.85085 2.16883 8.85085 1.95312C8.85085 1.73742 8.67554 1.5625 8.45936 1.5625H5.78271C5.62721 1.5625 5.4865 1.65434 5.4241 1.79641C5.06655 2.61102 4.41999 3.25613 3.60357 3.61289C3.46118 3.67516 3.36914 3.81559 3.36914 3.9707V9.10898C3.36914 13.297 5.96518 16.947 9.89395 18.3342C9.93619 18.3491 9.98036 18.3566 10.0246 18.3566C10.0688 18.3566 10.1129 18.3491 10.1552 18.3342C14.0806 16.9482 16.68 13.3004 16.68 9.10898V3.9707C16.68 3.81555 16.5879 3.67516 16.4455 3.61289Z" fill="black"/>
  <path d="M10.0244 5.70312C8.0816 5.70312 6.50098 7.28023 6.50098 9.21875C6.50098 11.1573 8.0816 12.7344 10.0244 12.7344C11.9673 12.7344 13.5479 11.1573 13.5479 9.21875C13.5479 7.28023 11.9673 5.70312 10.0244 5.70312ZM10.0244 11.9531C8.51334 11.9531 7.28397 10.7265 7.28397 9.21875C7.28397 7.71102 8.51334 6.48438 10.0244 6.48438C11.5355 6.48438 12.7649 7.71102 12.7649 9.21875C12.7649 10.7265 11.5355 11.9531 10.0244 11.9531Z" fill="black"/>
  <path d="M11.8673 8.16125C11.7144 8.00875 11.4666 8.00875 11.3136 8.16125L9.63301 9.83817L9.12685 9.33317C8.97393 9.18067 8.72611 9.18067 8.57316 9.33317C8.42028 9.48571 8.42028 9.73305 8.57316 9.88563L9.35614 10.6669C9.43264 10.7431 9.53279 10.7813 9.63301 10.7813C9.73323 10.7813 9.83338 10.7431 9.90984 10.6668L11.8673 8.71371C12.0202 8.56117 12.0202 8.31383 11.8673 8.16125Z" fill="black"/>
</svg>
